<svg width="1440" height="795" viewBox="0 0 1440 795" fill="none" xmlns="http://www.w3.org/2000/svg">
<g clip-path="url(#clip0)">
<path d="M63.6093 277L85.8392 488.406L111.737 699.813H63.6093H15.4821L37.712 488.406L63.6093 277Z" fill="#F28B12"/>
<path d="M226 495.853L100.623 621.229" stroke="#F28B12" stroke-width="5.54636" stroke-miterlimit="10"/>
<path d="M-93 465.509L32.3763 590.886" stroke="#F28B12" stroke-width="5.54636" stroke-miterlimit="10"/>
<path d="M-55.8751 389.927L41.3804 487.183" stroke="#F28B12" stroke-width="5.54636" stroke-miterlimit="10"/>
<path d="M-27.8666 297.672L59.4968 385.036" stroke="#F28B12" stroke-width="5.54636" stroke-miterlimit="10"/>
<path d="M189.543 424.496L88.1743 525.864" stroke="#F28B12" stroke-width="5.54636" stroke-miterlimit="10"/>
<path d="M168.423 330.795L76.1693 423.049" stroke="#F28B12" stroke-width="5.54636" stroke-miterlimit="10"/>
<path d="M41.8238 24.0222L69.1023 62.1381C63.2367 66.3465 52.9008 61.9854 46.0539 52.391C39.1852 42.7967 41.8238 24.0222 41.8238 24.0222Z" fill="#E83B62"/>
<path d="M67.3143 37.1486C74.183 46.743 74.9682 57.9074 69.1025 62.1158L41.824 24C41.824 24.0218 60.4456 27.5761 67.3143 37.1486Z" fill="#C31718"/>
<path d="M21.6103 24.1744L-9.85498 68.1341C-3.0735 72.9749 8.83238 67.9379 16.7259 56.8825C24.6631 45.8272 21.6103 24.1744 21.6103 24.1744Z" fill="#E9698D"/>
<path d="M-7.76152 39.3286C-15.6769 50.384 -16.5929 63.271 -9.83319 68.1336L21.6321 24.1958C21.6103 24.174 0.132034 28.2733 -7.76152 39.3286Z" fill="#F28B12"/>
<path d="M26.5394 111L56.0422 152.212C49.6968 156.748 38.5326 152.038 31.1188 141.68C23.6831 131.301 26.5394 111 26.5394 111Z" fill="#E9C033"/>
<path d="M54.0799 125.217C61.4937 135.575 62.3657 147.677 56.0203 152.212L26.5176 111C26.5176 111.022 46.6661 114.86 54.0799 125.217Z" fill="#F28B12"/>
<path d="M55.8548 211.736L9.52593 265.985C1.17748 258.859 3.84463 241.99 15.4834 228.356C27.1534 214.714 55.8548 211.736 55.8548 211.736Z" fill="#00968E"/>
<path d="M45.7679 254.193C34.0979 267.835 17.8744 273.113 9.52596 265.986L55.8549 211.737C55.8549 211.737 57.4067 240.559 45.7679 254.193Z" fill="#32B6B7"/>
<path d="M1321.76 14L1363.27 72.0168C1354.35 78.406 1338.61 71.7599 1328.18 57.1835C1317.75 42.575 1321.76 14 1321.76 14Z" fill="#00968E"/>
<path d="M1360.54 34.0025C1370.98 48.611 1372.2 65.6275 1363.27 72.0168L1321.76 14C1321.76 14 1350.11 19.4261 1360.54 34.0025Z" fill="#32B6B7"/>
<path d="M1428.39 251.778L1375.24 215.892C1380.75 207.699 1396.09 208.366 1409.45 217.408C1422.83 226.44 1428.39 251.778 1428.39 251.778Z" fill="#E83B62"/>
<path d="M1389.44 247.091C1376.06 238.059 1369.73 224.114 1375.25 215.921L1428.4 251.806C1428.39 251.778 1402.81 256.095 1389.44 247.091Z" fill="#C31718"/>
<path d="M1454.25 241.948L1473.65 170.568C1462.65 167.592 1449.78 179.727 1444.92 197.669C1440.01 215.632 1454.25 241.948 1454.25 241.948Z" fill="#E9698D"/>
<path d="M1484.69 208.512C1489.58 190.56 1484.61 173.594 1473.62 170.579L1454.21 241.931C1454.25 241.949 1479.84 226.454 1484.69 208.512Z" fill="#F28B12"/>
<path d="M1414.35 189.93L1356.87 151.133C1362.85 142.291 1379.41 143.011 1393.86 152.762C1408.34 162.53 1414.35 189.93 1414.35 189.93Z" fill="#E9C033"/>
<path d="M1372.25 184.821C1357.81 175.07 1350.92 159.964 1356.9 151.122L1414.38 189.919C1414.37 189.891 1386.7 194.572 1372.25 184.821Z" fill="#F28B12"/>
</g>
<defs>
<clipPath id="clip0">
<rect width="1440" height="795" fill="white"/>
</clipPath>
</defs>
</svg>
