<svg width="30" height="30" viewBox="0 0 30 30" fill="none" xmlns="http://www.w3.org/2000/svg">
<path d="M27.2086 12.6757C28.5426 11.3414 29.2701 9.56743 29.257 7.68041C29.2438 5.79373 28.4913 4.02973 27.1378 2.71328C25.7971 1.40928 24.0218 0.709624 22.1375 0.744139C20.2516 0.77831 18.5001 1.54288 17.2056 2.89688C16.0822 4.0719 15.4004 5.61218 15.286 7.23401C15.2716 7.43829 15.2495 7.64086 15.2208 7.84161C13.6744 6.79801 12.1204 6.01967 10.7524 5.61344C8.23327 4.86527 6.91247 5.50024 6.24813 6.1647C5.12007 7.29292 5.07092 9.29446 6.10384 11.8121C4.83944 12.2814 3.71075 13.0062 2.74509 13.972C-0.91503 17.6328 -0.91503 23.5892 2.74509 27.25C4.51824 29.0234 6.87573 30.0001 9.38339 30.0001C11.891 30.0001 14.2485 29.0234 16.0216 27.25C16.9736 26.2979 17.7131 25.1448 18.1809 23.8909C19.3828 24.3842 20.4672 24.6312 21.3948 24.6312C22.4102 24.6312 23.2382 24.336 23.8277 23.7464C24.4933 23.0807 25.1286 21.7568 24.3753 19.2303C23.9674 17.8621 23.1883 16.3092 22.1448 14.7641C22.3299 14.7403 22.5164 14.7224 22.7042 14.7106C24.4037 14.6038 26.0034 13.8811 27.2086 12.6757ZM14.809 26.0379C13.3597 27.4874 11.4329 28.2857 9.38333 28.2857C7.33373 28.2857 5.40687 27.4874 3.95761 26.0379C0.965602 23.0455 0.965602 18.1764 3.95761 15.1839C4.78384 14.3575 5.75521 13.747 6.84624 13.3663C7.14847 13.9242 7.49076 14.489 7.86801 15.0523C6.90418 15.3124 6.03127 15.8164 5.31024 16.5375C3.06458 18.7836 3.06458 22.4381 5.31024 24.6842C6.39818 25.7723 7.84464 26.3716 9.38327 26.3716C10.9219 26.3716 12.3684 25.7723 13.4564 24.6842C14.1679 23.9725 14.6779 23.0871 14.9404 22.1259C15.5037 22.5033 16.0686 22.8457 16.6265 23.1481C16.2484 24.2282 15.624 25.2228 14.809 26.0379ZM8.97933 16.5802C9.61813 17.3928 10.3193 18.1852 11.0637 18.9297C11.8069 19.6731 12.5977 20.3732 13.4087 21.0112C13.3171 21.9385 12.9041 22.8118 12.2438 23.4723C11.4797 24.2365 10.4638 24.6573 9.38327 24.6573C8.30276 24.6573 7.28687 24.2365 6.52281 23.4723C4.94532 21.8945 4.94532 19.3273 6.52281 17.7495C7.17241 17.0999 7.99659 16.6998 8.90636 16.5924C8.93116 16.5896 8.95533 16.5851 8.97933 16.5802ZM22.7322 19.7199C23.1259 21.0403 23.0832 22.0661 22.6151 22.5343C22.0083 23.1412 20.5403 23.0331 18.688 22.2453C16.6041 21.3591 14.2672 19.7089 12.2764 17.7178C10.2856 15.7267 8.63562 13.3894 7.7495 11.3051C6.96178 9.45223 6.85378 7.98366 7.4607 7.37669C7.92739 6.90995 8.94927 6.86624 10.2642 7.25681C11.615 7.65795 13.1956 8.4876 14.7644 9.612C14.3705 10.6473 13.7713 11.586 12.9952 12.3623L12.8086 12.5489C12.4739 12.8836 12.4739 13.4262 12.8085 13.7609L16.1499 17.1028C16.3107 17.2636 16.5289 17.354 16.7564 17.3539C16.9838 17.3539 17.2019 17.2635 17.3627 17.1026L17.4041 17.0611C18.2356 16.2294 19.2447 15.5966 20.3563 15.1953C21.4898 16.7714 22.327 18.361 22.7322 19.7199ZM16.7798 15.3081L14.6136 13.1415C16.0023 11.5627 16.8429 9.53023 16.9964 7.35458C17.0827 6.13064 17.5972 4.96818 18.4451 4.08139C19.4212 3.06042 20.7436 2.48391 22.1687 2.45802C23.5938 2.43225 24.932 2.95916 25.9423 3.9419C26.9643 4.93596 27.5326 6.26784 27.5424 7.69223C27.5524 9.11697 27.0032 10.4563 25.996 11.4637C25.0863 12.3735 23.879 12.919 22.5966 12.9995C20.4244 13.136 18.3877 13.949 16.7798 15.3081Z" fill="#E83B62"/>
</svg>
