<svg width="38" height="38" viewBox="0 0 38 38" fill="none" xmlns="http://www.w3.org/2000/svg">
<g clip-path="url(#clip0)">
<path d="M28.7719 34.4388C28.5664 34.0845 28.1124 33.9638 27.7576 34.1694L27.729 34.1858C27.3746 34.3915 27.2539 34.8456 27.4595 35.2002C27.5972 35.4375 27.8462 35.57 28.1021 35.57C28.2284 35.57 28.3567 35.5376 28.4739 35.4696L28.5024 35.4531C28.8569 35.2475 28.9775 34.7933 28.7719 34.4388Z" fill="white"/>
<path d="M35.4542 9.50684C32.9173 5.11272 28.8211 1.96963 23.9201 0.656407C19.0193 -0.656819 13.9003 0.0171609 9.50613 2.55403C5.11208 5.0909 1.96892 9.18718 0.655764 14.0881C-0.657389 18.989 0.0165175 24.108 2.55339 28.5021C4.82901 32.4436 8.44584 35.4392 12.7376 36.9367C14.772 37.6466 16.8958 38.0008 19.0163 38.0008C21.3219 38.0008 23.6234 37.5818 25.7988 36.7457C26.1814 36.5987 26.3723 36.1693 26.2252 35.7867C26.0781 35.4041 25.6486 35.213 25.2662 35.3603C19.4756 37.5859 13.207 36.5747 8.52355 33.0593L9.18847 29.5884L9.50888 29.4844C10.7196 29.091 11.3846 27.786 10.9914 26.5751L10.7563 25.8516C10.7019 25.6842 10.7022 25.5071 10.757 25.3398C10.9633 24.7111 10.8896 24.0231 10.5548 23.4522C10.22 22.8814 9.65553 22.4812 9.00605 22.3542L7.33093 22.0269L4.09885 19.5695C3.90521 19.4222 3.65175 19.3793 3.42034 19.4544L1.52806 20.0691C1.48791 19.3923 1.48731 18.7157 1.52546 18.0427C1.60012 18.1122 1.64874 18.1595 1.67865 18.1905C1.71568 18.2522 1.76155 18.3087 1.81528 18.3577C1.96981 18.4984 2.10978 18.5623 2.40369 18.5623C2.67377 18.5622 3.07359 18.5084 3.73377 18.4109C4.35988 18.3183 4.98272 18.214 4.98888 18.213C5.23848 18.1712 5.44948 18.005 5.54879 17.7723C5.64809 17.5395 5.62189 17.2723 5.47932 17.0631L4.56932 15.7284L5.87275 14.7963C5.95959 14.7342 6.03202 14.6541 6.08509 14.5615L8.10555 11.0343L8.91995 10.1616C9.75217 9.26964 9.98967 7.96465 9.52491 6.83682C9.25074 6.1716 8.77188 5.61778 8.17294 5.24453C8.82161 4.73458 9.51326 4.26373 10.2483 3.83943C12.9453 2.28232 15.8885 1.52773 18.8008 1.49886L17.4755 3.16129L12.5611 4.88413C12.3616 4.95404 12.2012 5.10589 12.1206 5.30139L10.7482 8.62846C10.6507 8.86485 10.6817 9.13456 10.8302 9.34267L12.8347 12.1505C12.5476 12.4124 12.2682 12.7939 11.9344 13.2676C11.7881 13.4753 11.6499 13.6715 11.5543 13.7815C11.4713 13.8772 11.3882 13.9707 11.3058 14.0634C10.8747 14.5484 10.4289 15.05 10.1122 15.7201C9.41588 17.194 9.55653 18.9071 10.4792 20.1909C11.3714 21.4322 12.8423 22.0632 14.4121 21.8786C14.6679 21.8486 14.9064 21.7896 15.1371 21.7324C15.7734 21.575 15.975 21.5593 16.1791 21.7503C16.2784 21.8433 16.2875 21.8609 16.2855 22.1763C16.2841 22.377 16.2825 22.6266 16.3517 22.9117C16.4625 23.3678 16.7489 23.683 16.979 23.9362C17.0934 24.062 17.2117 24.1922 17.2481 24.2796C17.4796 24.8343 17.3788 25.1415 17.1579 25.8146C17.139 25.8722 17.1197 25.931 17.1003 25.9913C16.7648 27.03 17.2325 28.0603 17.6452 28.9691C17.7792 29.2643 17.9058 29.5429 17.9887 29.7892C18.656 31.7693 19.1562 32.2227 19.5577 32.4053C19.7679 32.5009 19.9855 32.5429 20.2054 32.5428C21.2752 32.5427 22.3916 31.5494 22.9045 30.9196C23.2266 30.5242 23.3059 30.1282 23.3638 29.839C23.3927 29.6952 23.4154 29.5816 23.4587 29.5074C23.5251 29.3938 23.6033 29.3058 23.7022 29.1943C23.9012 28.9703 24.1488 28.6915 24.3092 28.1861C24.4311 27.8023 24.5196 27.7082 24.8129 27.3959C24.8639 27.3416 24.9183 27.2836 24.9767 27.22C25.9653 26.1444 25.7107 25.3227 25.4411 24.4527C25.2142 23.7207 25.611 23.2525 26.5705 22.359C26.9864 21.9717 27.4165 21.5712 27.7489 21.0899C27.8944 20.8793 28.3369 20.2386 28.0631 19.6035C27.7946 18.9808 27.1123 18.8761 26.5641 18.7921C26.3476 18.7589 26.0205 18.7087 25.9164 18.6406C25.4572 18.3404 25.1762 17.7139 24.9045 17.1079C24.8504 16.9873 24.7971 16.8682 24.743 16.7527C24.6465 16.5465 24.5501 16.297 24.448 16.033C24.178 15.3341 23.872 14.542 23.3511 13.9898C22.8828 13.4937 22.0001 13.2547 21.2213 13.0437C20.9594 12.9729 20.7122 12.9059 20.5491 12.8457C20.4125 12.7953 20.2642 12.7861 20.1228 12.8194C19.7437 12.9082 19.5073 13.0061 19.3317 13.1468C19.2853 13.184 19.1479 13.3061 19.0674 13.5023C18.7957 13.3719 18.4221 13.1229 18.1922 12.9697C18.1874 12.9665 18.1826 12.9633 18.1779 12.9601C18.2553 12.65 18.1852 12.4012 18.1117 12.2457C17.6971 11.3688 16.3209 11.4374 16.0494 11.4605C15.8952 11.4734 15.7001 11.4803 15.4937 11.4876C15.1695 11.4991 14.8111 11.512 14.4566 11.5518L14.4749 11.5009C14.744 10.751 15.46 10.2472 16.2567 10.2472H16.6786C17.0884 10.2472 17.4207 9.9149 17.4207 9.50514C17.4207 9.09538 17.0884 8.76302 16.6786 8.76302H16.2567C15.074 8.76302 13.9909 9.3855 13.3838 10.3653L12.2769 8.8146L13.366 6.17472L18.1681 4.49114C18.2998 4.44498 18.4159 4.36259 18.5029 4.25342L20.6377 1.57568C26.0923 2.09454 31.2268 5.1528 34.169 10.2488C34.9526 11.6062 35.5324 13.0352 35.9178 14.4968L35.6032 14.7773C35.1925 15.1438 34.9519 15.6693 34.9427 16.2193C34.9426 16.2253 34.9425 16.2313 34.9422 16.2372L34.4297 14.8277C34.3533 14.6173 34.2408 14.4244 34.0955 14.2544L33.1812 13.1839C32.8267 12.769 32.3106 12.5311 31.765 12.5311H30.6459C30.2486 12.5311 29.8855 12.7487 29.6981 13.0988C29.5107 13.449 29.5312 13.8719 29.7515 14.2023L29.8648 14.3723C29.1416 14.9942 28.3052 15.4918 27.4145 15.8275L25.8804 12.8889V12.2333C25.8804 12.0306 25.7975 11.8365 25.6507 11.6966L24.2693 10.3778C24.1931 10.3051 24.1022 10.2494 24.0028 10.2144L22.7593 9.77744C22.3724 9.64133 21.9489 9.84491 21.8131 10.2315C21.6772 10.6183 21.8805 11.0418 22.2672 11.1777L23.36 11.5618L24.3962 12.5509V13.071C24.3962 13.1906 24.4251 13.3085 24.4805 13.4145L26.4011 17.0933C26.5738 17.4243 26.9658 17.5756 27.3157 17.4462L27.8749 17.24C29.1741 16.7608 30.3783 15.9901 31.3574 15.0111C31.6075 14.7609 31.6464 14.3691 31.4501 14.0747L31.4106 14.0154H31.765C31.8758 14.0154 31.9807 14.0637 32.0527 14.148L32.967 15.2185C32.9965 15.253 33.0192 15.292 33.0348 15.3349L34.0438 18.1094C34.1305 18.3478 34.333 18.5253 34.5804 18.5802C34.6339 18.592 34.6877 18.5978 34.7412 18.5978C34.9359 18.5978 35.1253 18.5212 35.2659 18.3804L35.7462 17.9002C36.0503 17.5959 36.2597 17.211 36.3598 16.7844C37.1025 22.7371 34.7684 28.8949 29.8348 32.7671C29.5123 33.0202 29.4561 33.4866 29.7092 33.8091C29.9622 34.1316 30.4286 34.1878 30.7512 33.9347C34.3131 31.1391 36.7601 27.1405 37.6414 22.6756C38.531 18.1676 37.7543 13.4908 35.4542 9.50684ZM3.50955 20.986L6.56981 23.3129C6.66029 23.3817 6.76523 23.4287 6.87671 23.4505L8.72119 23.8109C8.95662 23.8569 9.153 23.9961 9.27435 24.203C9.39569 24.4099 9.42123 24.6492 9.34656 24.8772C9.19293 25.3457 9.19219 25.8413 9.34456 26.3101L9.57968 27.0336C9.72018 27.466 9.48253 27.9322 9.05021 28.0727L8.31269 28.3123C8.05538 28.3959 7.86404 28.6129 7.8132 28.8785L7.2196 31.977C5.91461 30.7826 4.76882 29.371 3.83878 27.76C2.70413 25.795 1.99519 23.6989 1.68273 21.5796L3.50955 20.986ZM7.8348 9.14896L6.96176 10.0843C6.9228 10.1261 6.88873 10.1723 6.86031 10.2219L4.87777 13.6831L3.11575 14.9431C2.78755 15.1777 2.70695 15.6314 2.93421 15.9648L3.5932 16.9315C3.21334 16.988 2.87246 17.0346 2.64579 17.0593C2.60223 17.0176 2.55666 16.9752 2.50953 16.9314C2.33311 16.7675 2.08796 16.5486 1.72251 16.2288C2.32524 12.4984 4.12282 8.98397 6.94996 6.30134C7.49131 6.47182 7.93559 6.87564 8.1526 7.40237C8.39678 7.99478 8.27195 8.68042 7.8348 9.14896ZM13.8859 13.2045C14.2169 13.0182 14.9852 12.991 15.5461 12.9711C15.7709 12.9631 15.9834 12.9556 16.1731 12.9397C16.2732 12.9313 16.3844 12.9329 16.4892 12.941C16.4424 13.0613 16.4272 13.1932 16.4475 13.3241C16.4832 13.5544 16.6252 13.7545 16.8306 13.8644C16.9699 13.9389 17.1637 14.0681 17.3688 14.2049C17.9488 14.5916 18.6063 15.0298 19.224 15.0692C19.7857 15.1056 20.0982 14.7855 20.2321 14.6492C20.2428 14.6383 20.2529 14.6275 20.2636 14.6176C20.339 14.5562 20.4096 14.4738 20.4622 14.3744C20.5808 14.4083 20.7055 14.4421 20.8333 14.4768C21.2728 14.5957 22.0907 14.8172 22.2715 15.0087C22.5925 15.349 22.8427 15.9967 23.0635 16.5681C23.175 16.8569 23.2804 17.1294 23.3986 17.3821C23.4494 17.4906 23.4993 17.6023 23.5501 17.7154C23.8926 18.4792 24.2807 19.3451 25.1042 19.8833C25.4776 20.1274 25.9353 20.1975 26.3392 20.2595C26.388 20.267 26.444 20.2756 26.5008 20.285C26.2611 20.6194 25.9198 20.9372 25.5591 21.273C24.6404 22.1286 23.497 23.1935 24.0236 24.8923C24.2721 25.6945 24.2837 25.7812 23.884 26.2159C23.8295 26.2752 23.7788 26.3293 23.7312 26.3799C23.3889 26.7443 23.1185 27.0321 22.8947 27.7372C22.8297 27.942 22.7454 28.0368 22.5925 28.209C22.4701 28.3467 22.3178 28.5183 22.1773 28.7588C22.009 29.0469 21.9533 29.3244 21.9087 29.5472C21.8647 29.7666 21.8397 29.8766 21.7536 29.9823C21.5576 30.2229 21.192 30.5723 20.8167 30.8108C20.4679 31.0323 20.2642 31.0626 20.1948 31.0584C20.1156 30.9735 19.8288 30.6017 19.3953 29.3153C19.2885 28.9979 19.1402 28.6714 18.9968 28.3556C18.6807 27.6594 18.3539 26.9395 18.5129 26.4475C18.5317 26.3895 18.5502 26.3327 18.5685 26.2773C18.8224 25.5032 19.0622 24.7722 18.618 23.7079C18.4828 23.3838 18.2675 23.147 18.0777 22.938C17.9549 22.8028 17.8157 22.6496 17.7943 22.5615C17.7682 22.4539 17.769 22.3298 17.7699 22.186C17.7725 21.7982 17.7763 21.2122 17.1938 20.6667C16.3725 19.898 15.4148 20.1348 14.7809 20.2916C14.5863 20.3397 14.4023 20.3852 14.2394 20.4044C13.1967 20.5265 12.2659 20.1332 11.6848 19.3245C11.0768 18.4786 10.9886 17.3403 11.4545 16.354C11.6801 15.8767 12.0208 15.4932 12.4154 15.0493C12.5015 14.9523 12.5885 14.8545 12.6755 14.7543C12.8202 14.5875 12.9795 14.3616 13.1479 14.1224C13.349 13.837 13.7233 13.3056 13.8859 13.2045Z" fill="white"/>
<path d="M30.4313 25.5518L30.0743 24.2059C29.9963 23.912 29.7469 23.6954 29.445 23.6594C29.1428 23.6241 28.8497 23.7752 28.7046 24.0424C28.6233 24.1923 28.55 24.3512 28.4792 24.5047C28.3601 24.7631 28.2369 25.0303 28.1087 25.1777C28.0367 25.2606 27.8518 25.3499 27.6731 25.4361C27.2458 25.6423 26.6606 25.9247 26.437 26.6373C26.2982 27.0794 26.35 27.4291 26.3879 27.6844C26.4206 27.9058 26.4282 27.9826 26.3689 28.1218L26.3615 28.1391C26.1252 28.6934 25.6857 29.7254 26.302 30.6028C26.7418 31.2289 27.2042 31.3899 27.5634 31.3899C27.6336 31.3901 27.6999 31.3839 27.7613 31.3739C28.5183 31.2502 29.0874 30.4627 29.5525 28.8955L30.4255 25.9534C30.4643 25.8226 30.4664 25.6836 30.4313 25.5518ZM28.1297 28.4733C27.8926 29.2723 27.6829 29.6454 27.5618 29.8107C27.5479 29.7929 27.5327 29.7727 27.5165 29.7496C27.3747 29.5476 27.5867 29.05 27.7269 28.7207L27.7344 28.7034C27.9607 28.1724 27.9002 27.7646 27.8562 27.4669C27.8279 27.2762 27.8178 27.1943 27.8532 27.0817C27.8823 26.9891 28.0562 26.8993 28.3182 26.7729C28.4343 26.7168 28.5622 26.6551 28.6913 26.5804L28.1297 28.4733Z" fill="white"/>
<path d="M20.0413 8.82164L19.9912 8.80413C19.6047 8.66875 19.1809 8.87204 19.0453 9.25879C18.9096 9.64562 19.1132 10.069 19.4999 10.2047L19.55 10.2222C19.6312 10.2507 19.7141 10.2642 19.7956 10.2642C20.102 10.2642 20.3888 10.073 20.4959 9.76756C20.6316 9.38073 20.428 8.95724 20.0413 8.82164Z" fill="white"/>
</g>
<defs>
<clipPath id="clip0">
<rect width="38" height="38" fill="white"/>
</clipPath>
</defs>
</svg>
