<svg width="342" height="382" viewBox="0 0 342 382" fill="none" xmlns="http://www.w3.org/2000/svg">
<g filter="url(#filter0_d)">
<path d="M213.699 292.351L169.814 200.611L86.8072 230.86L42.7366 139.377L-29.6517 141.549L50.9356 108.508L96.6738 200.758L173.232 170.231L177.956 168.272L192.543 198.728L222.625 261.495L227.731 272.859L221.067 282.116L213.699 292.351Z" fill="#744A98"/>
<path d="M96.6734 200.758L173.232 170.231L106.177 168.077L84.966 177.161L96.6734 200.758Z" fill="#BB95C4"/>
<path d="M141.506 296.297L213.699 292.351L169.813 200.611L106.804 223.567L141.506 296.297Z" fill="#9671B6"/>
<path d="M-29.6522 141.549L11.46 233.035L86.8067 230.86L42.736 139.377L-29.6522 141.549Z" fill="#9671B6"/>
<path d="M-29.6521 141.549L-105.914 139.926L-22.0044 108.377L50.9352 108.508L-29.6521 141.549Z" fill="#BB95C4"/>
</g>
<defs>
<filter id="filter0_d" x="-120.914" y="0.861572" width="462.245" height="380.319" filterUnits="userSpaceOnUse" color-interpolation-filters="sRGB">
<feFlood flood-opacity="0" result="BackgroundImageFix"/>
<feColorMatrix in="SourceAlpha" type="matrix" values="0 0 0 0 0 0 0 0 0 0 0 0 0 0 0 0 0 0 127 0"/>
<feOffset dx="33" dy="4"/>
<feGaussianBlur stdDeviation="24"/>
<feColorMatrix type="matrix" values="0 0 0 0 0 0 0 0 0 0 0 0 0 0 0 0 0 0 0.23 0"/>
<feBlend mode="normal" in2="BackgroundImageFix" result="effect1_dropShadow"/>
<feBlend mode="normal" in="SourceGraphic" in2="effect1_dropShadow" result="shape"/>
</filter>
</defs>
</svg>
