<svg width="60" height="62" viewBox="0 0 60 62" fill="none" xmlns="http://www.w3.org/2000/svg">
<g clip-path="url(#clip0)">
<path d="M57.1247 28.1049C56.6384 27.4605 55.7389 27.346 55.1153 27.8482C54.4918 28.3507 54.3806 29.2802 54.8668 29.9246C55.3447 30.5579 55.3447 31.4422 54.8668 32.0756C51.3648 36.7153 46.8336 40.2017 41.7325 42.3095C44.4136 39.3431 46.0553 35.3653 46.0553 31C46.0553 26.6519 44.4273 22.6884 41.769 19.7282C44.7166 20.953 47.4875 22.6362 49.9682 24.7379C50.276 24.9986 50.5829 25.269 50.8811 25.5417C51.4731 26.0833 52.3778 26.0264 52.902 25.4148C53.4261 24.8031 53.3711 23.8681 52.7791 23.3265C52.4542 23.029 52.1191 22.7341 51.7835 22.4499C45.664 17.2653 37.9276 14.41 30 14.41C19.3309 14.41 9.44439 19.4016 2.87544 28.105C1.58884 29.8096 1.58884 32.1907 2.87544 33.8955C9.44439 42.5988 19.3309 47.5904 30 47.5904C40.6689 47.5904 50.5555 42.5988 57.1247 33.8955C58.4113 32.1905 58.4113 29.8095 57.1247 28.1049ZM5.13329 32.0756C4.6554 31.4422 4.6554 30.5579 5.13329 29.9246C8.6345 25.2857 13.1647 21.7998 18.265 19.6917C15.5867 22.6566 13.9447 26.6329 13.9447 31C13.9447 35.3655 15.5865 39.3434 18.2649 42.3085C13.1647 40.2003 8.63439 36.7144 5.13329 32.0756ZM30.0175 44.6312C30.0117 44.6312 30.006 44.6313 30.0001 44.6313C29.9943 44.6313 29.9886 44.6312 29.9828 44.6312C22.7163 44.6215 16.8081 38.5108 16.8081 31C16.8081 23.4892 22.7162 17.3785 29.9828 17.3688C29.9885 17.3688 29.9943 17.3687 30.0001 17.3687C30.0046 17.3687 30.009 17.3688 30.0135 17.3688C37.2817 17.3762 43.192 23.4877 43.192 31C43.192 38.5108 37.2839 44.6215 30.0175 44.6312Z" fill="white"/>
<path d="M30.0001 24.7225C26.6501 24.7225 23.9251 27.5383 23.9251 31C23.9251 34.4617 26.6501 37.2775 30.0001 37.2775C33.3501 37.2775 36.0751 34.4617 36.0751 31C36.0751 27.5383 33.3501 24.7225 30.0001 24.7225ZM30.0001 34.3187C28.2296 34.3187 26.7885 32.8295 26.7885 31C26.7885 29.1705 28.2296 27.6813 30.0001 27.6813C31.7706 27.6813 33.2117 29.1705 33.2117 31C33.2117 32.8295 31.7706 34.3187 30.0001 34.3187Z" fill="white"/>
<path d="M30.0001 0C29.2093 0 28.5684 0.662262 28.5684 1.4794V7.02707C28.5684 7.84421 29.2093 8.50647 30.0001 8.50647C30.7909 8.50647 31.4318 7.84421 31.4318 7.02707V1.4794C31.4318 0.662262 30.7908 0 30.0001 0Z" fill="white"/>
<path d="M30.0001 53.4935C29.2093 53.4935 28.5684 54.1558 28.5684 54.9729V60.5206C28.5684 61.3378 29.2093 62 30.0001 62C30.7909 62 31.4318 61.3378 31.4318 60.5206V54.9729C31.4318 54.1558 30.7906 53.4935 30.0001 53.4935Z" fill="white"/>
<path d="M51.2134 9.07958C50.6543 8.50196 49.748 8.50196 49.1885 9.07958L46.5172 11.8399C45.9581 12.4176 45.9581 13.3543 46.5172 13.9323C46.7968 14.2211 47.163 14.3656 47.5296 14.3656C47.8959 14.3656 48.2623 14.2211 48.542 13.9323L51.2135 11.172C51.7725 10.5942 51.7725 9.65756 51.2134 9.07958Z" fill="white"/>
<path d="M13.483 48.0677C12.924 47.4902 12.0176 47.4901 11.4584 48.0677L8.78685 50.828C8.22775 51.4058 8.22775 52.3424 8.78685 52.9204C9.06646 53.2092 9.4329 53.3537 9.79923 53.3537C10.1656 53.3537 10.5319 53.2092 10.8116 52.9204L13.4831 50.1601C14.0421 49.5822 14.0421 48.6457 13.483 48.0677Z" fill="white"/>
<path d="M13.483 11.84L10.8115 9.07958C10.2524 8.50196 9.34594 8.50196 8.78684 9.07958C8.22773 9.65756 8.22785 10.5941 8.78684 11.172L11.4584 13.9323C11.7379 14.2211 12.1044 14.3656 12.4707 14.3656C12.8371 14.3656 13.2036 14.2211 13.4831 13.9323C14.0421 13.3543 14.042 12.4178 13.483 11.84Z" fill="white"/>
<path d="M51.2132 50.8281L48.5419 48.0677C47.9825 47.4901 47.0763 47.4901 46.517 48.0677C45.9579 48.6457 45.9579 49.5822 46.517 50.1601L49.1885 52.9204C49.4681 53.2092 49.8346 53.3537 50.2009 53.3537C50.5672 53.3537 50.9335 53.2092 51.2133 52.9204C51.7724 52.3425 51.7724 51.4058 51.2132 50.8281Z" fill="white"/>
</g>
<defs>
<clipPath id="clip0">
<rect width="60" height="62" fill="white"/>
</clipPath>
</defs>
</svg>
