<svg width="41" height="41" viewBox="0 0 41 41" fill="none" xmlns="http://www.w3.org/2000/svg">
<rect width="41" height="41" fill="white"/>
<path d="M24.7493 12.0033L22.5448 12C20.0681 12 18.4676 13.5455 18.4676 15.9376V17.7531H16.2511C16.0595 17.7531 15.9044 17.8993 15.9044 18.0795V20.71C15.9044 20.8903 16.0597 21.0363 16.2511 21.0363H18.4676V27.6738C18.4676 27.854 18.6227 28 18.8142 28H21.7062C21.8977 28 22.0528 27.8539 22.0528 27.6738V21.0363H24.6444C24.836 21.0363 24.9911 20.8903 24.9911 20.71L24.9921 18.0795C24.9921 17.993 24.9555 17.9101 24.8906 17.8488C24.8257 17.7876 24.7373 17.7531 24.6453 17.7531H22.0528V16.2141C22.0528 15.4744 22.2401 15.0989 23.2639 15.0989L24.7489 15.0984C24.9403 15.0984 25.0954 14.9522 25.0954 14.7721V12.3296C25.0954 12.1496 24.9405 12.0037 24.7493 12.0033Z" fill="black"/>
</svg>
