<svg width="1440" height="298" viewBox="0 0 1440 298" fill="none" xmlns="http://www.w3.org/2000/svg">
<mask id="mask0" mask-type="alpha" maskUnits="userSpaceOnUse" x="-15" y="0" width="1071" height="298">
<rect x="-15" width="1071" height="297.295" fill="#C4C4C4"/>
</mask>
<g mask="url(#mask0)">
<path d="M876.825 209.896L876.482 347.047L948.331 418.408L983.463 385.768L958.486 361.17V336.782L920.353 303.553L918.145 240.274L876.825 209.896Z" fill="#221B2A"/>
<path d="M669.409 319.717L595.272 253.364L530.76 319.533L524.665 389.547L453.172 460.189L382.552 389.547L341.074 720.38L381.627 870.373H522.972L876.826 746.573V323.195L810.635 253.364L669.409 319.717Z" fill="#221B2A"/>
<path d="M876.826 -25.5405V108.433L1014.35 108.276L876.826 -25.5405Z" fill="#6FC4C5"/>
<path d="M1019.1 -162.43L1162 -20.9374L1026.3 108.433L1014.35 108.956L876.826 -25.5405L1019.1 -162.43Z" fill="#32B6B7"/>
<path d="M1162 -20.9375H1305.57L1169.83 108.276L1026.3 107.792L1162 -20.9375Z" fill="#00968E"/>
<path d="M-44.631 97.9846L-9.32766 65.6846L26.8616 101.738L-44.631 171.307V97.9846Z" fill="#EEB467"/>
<path d="M-44.631 171.306L26.8616 101.737L97.4815 171.306L26.4252 243.334L-44.631 171.306Z" fill="#221B2A"/>
<path d="M-122.074 243.334L-119.429 313.374H-49.9199L26.4252 243.334L-44.6311 168.037L-122.074 243.334Z" fill="#32B6B7"/>
<path d="M-49.9199 313.374L97.4814 171.307V313.374L-47.9366 454.788L-49.9199 313.374Z" fill="#6FC4C5"/>
<path d="M-193.236 -231.972C-192.905 -231.972 -193.236 -116.751 -193.236 -116.751L97.4814 171.308V27.2783L-44.6311 -116.751H97.4682V-231.972H-193.236Z" fill="#C31718"/>
<path d="M97.4813 27.2774L243.997 -114.581V28.1536L97.4813 171.307V27.2774Z" fill="#E9698D"/>
<path d="M-44.6311 -116.751H97.4813L174.699 -186.582L243.997 -114.581L97.4813 27.2779L-42.4891 -114.581" fill="#E83B62"/>
<path d="M243.997 -41.6768H314.603L243.997 28.154V-41.6768Z" fill="#4A2779"/>
<path d="M314.603 28.3633V101.738H392.641L422.722 72.2886L389.626 28.3633H314.603Z" fill="#2E2B84"/>
<path d="M387.418 -41.6768L314.603 28.3632H389.626L458.474 -41.6768H387.418Z" fill="#2953A1"/>
<path d="M458.474 -41.6768L494.558 1.96093L422.721 74.4202L389.626 28.3632L458.474 -41.6768Z" fill="#3AA3DC"/>
<path d="M350.793 -78.1357L387.418 -41.6773L314.603 28.3627V-41.6773L350.793 -78.1357Z" fill="#3AA3DC"/>
<path d="M458.474 -41.6774L532.611 -106.578V-35.2958L494.558 1.96033L458.474 -41.6774Z" fill="#8AA4D5"/>
<path d="M956.529 213.651L955.577 180.043L1027.76 253.653L1015.18 274.314L956.529 213.651Z" fill="#BB95C4"/>
<path d="M314.603 101.738L238.589 176.551H316.812L392.641 101.738H314.603Z" fill="#BBC8E8"/>
<path d="M918.145 142.407V243.557L956.529 213.65V176.996L918.145 142.407Z" fill="#E9698D"/>
<path d="M314.603 -41.6768V101.738L170.732 243.335L169.622 100.822L314.603 -41.6768Z" fill="#BB95C4"/>
<path d="M918.145 142.407L876.826 108.434L962.889 108.028L918.145 142.407Z" fill="#E83B62"/>
<path d="M170.732 243.335H96.7012L97.4813 313.375L170.732 243.335Z" fill="#BB95C4"/>
<path d="M169.622 100.823L170.732 243.336H96.7012L94.1493 168.039L169.622 100.823Z" fill="#221B2A"/>
<path d="M170.732 243.335L242.106 319.207L97.4813 313.375L170.732 243.335Z" fill="#8AA4D5"/>
<path d="M170.732 243.335L204.383 281.271L243.997 247.258L207.358 207.282L170.732 243.335Z" fill="#744A98"/>
<path d="M207.358 207.283L238.589 176.552H316.811L243.997 247.259L207.358 207.283Z" fill="#4A2779"/>
<path d="M384.708 175.609L311.073 247.258H243.997L204.383 281.271L242.106 319.207L316.811 319.534L456.491 176.551L384.708 175.609Z" fill="#4A2779"/>
<path d="M456.491 176.552L494.558 209.898L348.809 357.68L316.812 319.535L456.491 176.552Z" fill="#BB95C4"/>
<path d="M1127.39 34.8232L1049.83 107.871L962.889 108.028L918.145 142.407L956.899 181.376L1033.64 181.729L1177.16 34.8232H1127.39Z" fill="#4A2779"/>
<path d="M1177.16 34.8232L1216.25 69.0848L1063.11 216.88L1033.64 181.729L1177.16 34.8232Z" fill="#BB95C4"/>
<path d="M956.899 181.376L1027.76 253.652L1063.11 216.88L1033.64 181.716L956.899 181.376Z" fill="#744A98"/>
<path d="M532.611 104.628L595.271 176.551H669.422L600.574 104.628H532.611Z" fill="#F28B12"/>
<path d="M243.997 247.258L532.611 -35.2949H601.446L311.073 247.258H243.997Z" fill="#E9C033"/>
<path d="M601.459 -35.2949L634.991 -1.08569L532.611 104.628L562.679 139.138L494.558 209.897L456.491 176.551L384.708 175.61L601.459 -35.2949Z" fill="#EEB467"/>
<path d="M532.611 104.628L858.301 -231.972H876.825V-177.859L600.574 104.628H532.611Z" fill="#E9C033"/>
<path d="M562.679 139.138L311.073 389.548V461.118L595.271 176.551L562.679 139.138Z" fill="#E9C033"/>
<path d="M600.574 104.628L876.825 -177.859V-26.0886L669.408 176.551L600.574 104.628Z" fill="#EEB467"/>
<path d="M524.665 389.549L454.151 317.861L595.271 176.552H669.422L530.76 319.535L562.956 353.757L524.665 389.549Z" fill="#EEB467"/>
<path d="M669.422 176.55V250.749L738.706 180.042L704.064 142.707L669.422 176.55Z" fill="#EEB467"/>
<path d="M1091.91 380.852L1021.75 310.811L1163.18 167.815L1249.3 175.897L1096.02 310.811L1129.77 345.465L1091.91 380.852Z" fill="#E9698D"/>
<path d="M601.46 319.535L669.422 250.75L738.706 253.365L665.892 323.196L601.46 319.535Z" fill="#2953A1"/>
<path d="M669.422 176.552V250.75L601.459 319.535L595.271 253.366L669.422 176.552Z" fill="#3AA3DC"/>
<path d="M810.635 253.365V396.531H670.083L810.635 253.365Z" fill="#8AA4D5"/>
<path d="M810.635 253.365L877.156 326.805L876.826 186.149L810.635 253.365Z" fill="#3AA3DC"/>
<path d="M877.156 326.805L810.635 253.365L810.966 396.531L877.156 326.805Z" fill="#2953A1"/>
<path d="M670.083 396.531L665.878 323.196L876.826 108.434V186.15L670.083 396.531Z" fill="#E9C033"/>
<path d="M669.752 250.75L739.037 180.043H810.965L739.473 253.365L669.752 250.75Z" fill="#BBC8E8"/>
<path d="M739.143 108.434L704.064 142.708L738.706 180.043H810.635L876.826 108.434H739.143Z" fill="#BB95C4"/>
<path d="M739.143 108.433L876.826 -26.0889V108.433H739.143Z" fill="#BBC8E8"/>
<path d="M876.826 108.434L918.145 142.407V243.557L876.826 209.897V108.434Z" fill="#C31718"/>
<path d="M876.826 209.896L877.156 273.45L966.102 355.94L994.993 304.704L876.826 209.896Z" fill="#4A2779"/>
<path d="M917.034 242.655L985.618 311.479L1015.18 274.314L956.529 213.65L917.034 242.655Z" fill="#744A98"/>
<path d="M1026.66 387.873L958.486 317.859L1099.92 174.876H1171.42L1032.76 317.859L1064.95 352.081L1026.66 387.873Z" fill="#EEB467"/>
<path d="M1306.63 -124.035H-267.544V871.406H1306.63V-124.035Z" fill="white"/>
<path d="M971.272 85.2607H528.579V235.188H971.272V85.2607Z" fill="#BBC8E8"/>
<path d="M878.69 160.231L856.807 122.739L834.924 85.2607H878.69H922.442L900.559 122.739L878.69 160.231Z" fill="#BBC8E8"/>
<path d="M747.393 235.201L725.51 197.709L703.628 160.231H747.393H791.159L769.276 197.709L747.393 235.201Z" fill="#E9698D"/>
<path d="M834.924 235.201L813.042 197.709L791.159 160.231H834.924H878.69L856.807 197.709L834.924 235.201Z" fill="#2E2B84"/>
<path d="M703.628 160.231L681.758 197.709L659.875 235.201H703.628H747.393L725.51 197.709L703.628 160.231Z" fill="#EEB467"/>
<path d="M528.579 160.231L506.696 122.739L484.813 85.2607H528.579H572.344L550.461 122.739L528.579 160.231Z" fill="#E9698D"/>
<path d="M528.579 160.231L506.696 197.709L484.813 235.201H528.579H572.344L550.461 197.709L528.579 160.231Z" fill="#E9698D"/>
<path d="M572.344 85.2607L594.227 122.752L616.11 160.231H572.344H528.579L550.461 122.752L572.344 85.2607Z" fill="#E83B62"/>
<path d="M572.344 235.201L550.461 197.709L528.579 160.231H572.344H616.11L594.227 197.709L572.344 235.201Z" fill="#C31718"/>
<path d="M659.875 85.2607L681.758 122.752L703.628 160.231H659.875H616.11L637.992 122.752L659.875 85.2607Z" fill="#32B6B7"/>
<path d="M659.875 235.201L637.992 197.709L616.11 160.231H659.875H703.628L681.758 197.709L659.875 235.201Z" fill="#00968E"/>
<path d="M747.393 85.2607L769.276 122.752L791.159 160.231H747.393H703.628L725.51 122.752L747.393 85.2607Z" fill="#E9C033"/>
<path d="M834.924 85.2607L856.807 122.752L878.69 160.231H834.924H791.159L813.042 122.752L834.924 85.2607Z" fill="#2953A1"/>
<path d="M922.442 85.2607L944.325 122.752L966.208 160.231H922.442H878.69L900.56 122.752L922.442 85.2607Z" fill="#8AA4D5"/>
<path d="M922.442 235.201L900.56 197.709L878.69 160.231H922.442H966.208L944.325 197.709L922.442 235.201Z" fill="#221B2A"/>
<path d="M616.11 160.231L594.227 122.739L572.344 85.2607H616.11H659.875L637.993 122.739L616.11 160.231Z" fill="#6FC4C5"/>
<path d="M703.628 160.231L681.758 122.739L659.875 85.2607H703.628H747.393L725.51 122.739L703.628 160.231Z" fill="#EEB467"/>
<path d="M791.159 160.231L769.276 122.739L747.393 85.2607H791.159H834.924L813.042 122.739L791.159 160.231Z" fill="#3AA3DC"/>
<path d="M616.11 160.231L594.227 197.709L572.344 235.201H616.11H659.875L637.993 197.709L616.11 160.231Z" fill="#6FC4C5"/>
<path d="M791.159 160.231L769.276 197.709L747.393 235.201H791.159H834.924L813.042 197.709L791.159 160.231Z" fill="#744A98"/>
<path d="M878.69 160.231L856.807 197.709L834.924 235.201H878.69H922.442L900.559 197.709L878.69 160.231Z" fill="#BBC8E8"/>
<path d="M85.3831 -1.74023H33.8429V56.2559H85.3831V-1.74023Z" fill="#E9698D"/>
<path d="M33.8429 56.2559H-17.6973V114.252H33.8429V56.2559Z" fill="#6FC4C5"/>
<path d="M175.572 -1.74023H85.3831V85.6397H175.572V-1.74023Z" fill="#221B2A"/>
<path d="M263.91 -1.74023H175.559L219.734 41.9498L263.91 -1.74023Z" fill="#E9698D"/>
<path d="M219.734 41.9498L263.91 85.6397V-1.74023L219.734 41.9498Z" fill="#3AA3DC"/>
<path d="M175.559 -1.74023V85.6397L219.734 41.9498L175.559 -1.74023Z" fill="#E83B62"/>
<path d="M175.559 85.6397H263.91L219.734 41.9497L175.559 85.6397Z" fill="#2953A1"/>
<path d="M263.962 85.6397H352.313L308.138 41.9497L263.962 85.6397Z" fill="#F28B12"/>
<path d="M352.313 -1.74023H263.962L308.138 41.9498L352.313 -1.74023Z" fill="#2953A1"/>
<path d="M308.138 41.9498L263.962 -1.74023V85.6397L308.138 41.9498Z" fill="#3AA3DC"/>
<path d="M352.313 85.6397V-1.74023L308.138 41.9498L352.313 85.6397Z" fill="#E9C033"/>
<path d="M175.572 85.6392H85.3831V173.019H175.572V85.6392Z" fill="#8AA4D5"/>
<path d="M528.975 -1.71387H440.664V85.6269H528.975V-1.71387Z" fill="#6FC4C5"/>
<path d="M459.916 41.965C459.916 55.5781 471.062 66.6019 484.827 66.6019V17.3281C471.062 17.3281 459.916 28.365 459.916 41.965Z" fill="#4A2779"/>
<path d="M484.813 17.3281V66.6019C498.564 66.6019 509.724 55.5781 509.724 41.965C509.724 28.365 498.578 17.3281 484.813 17.3281Z" fill="#F28B12"/>
<path d="M616.877 -1.29492H528.975V85.6404H616.877V-1.29492Z" fill="#2953A1"/>
<path d="M548.135 42.1735C548.135 55.7212 559.228 66.6927 572.926 66.6927V17.6543C559.241 17.6543 548.135 28.6258 548.135 42.1735Z" fill="#00968E"/>
<path d="M572.926 17.6543V66.6927C586.624 66.6927 597.718 55.7081 597.718 42.1735C597.718 28.6258 586.624 17.6543 572.926 17.6543Z" fill="#6FC4C5"/>
<path d="M705.109 -1.62207H616.877V85.6402H705.109V-1.62207Z" fill="#EEB467"/>
<path d="M636.102 42.016C636.102 55.603 647.248 66.6268 660.986 66.6268V17.4053C647.248 17.4053 636.102 28.416 636.102 42.016Z" fill="#F28B12"/>
<path d="M660.986 17.4053V66.6268C674.724 66.6268 685.87 55.603 685.87 42.016C685.87 28.416 674.737 17.4053 660.986 17.4053Z" fill="#744A98"/>
<path d="M528.83 173.034H94.2156V322.83H528.83V173.034Z" fill="#BBC8E8"/>
<path d="M437.914 247.926L416.441 210.486L394.955 173.034H437.914H480.886L459.4 210.486L437.914 247.926Z" fill="#BBC8E8"/>
<path d="M309.024 322.83L287.551 285.378L266.065 247.926H309.024H351.996L330.51 285.378L309.024 322.83Z" fill="#E9698D"/>
<path d="M394.955 322.83L373.469 285.378L351.996 247.926H394.955H437.914L416.441 285.378L394.955 322.83Z" fill="#2E2B84"/>
<path d="M266.065 247.926L244.579 285.378L223.106 322.83H266.065H309.024L287.551 285.378L266.065 247.926Z" fill="#EEB467"/>
<path d="M94.2156 247.926L72.7295 210.486L51.2434 173.034H94.2156H137.175L115.688 210.486L94.2156 247.926Z" fill="#E9698D"/>
<path d="M94.2156 247.926L72.7295 285.378L51.2434 322.83H94.2156H137.175L115.688 285.378L94.2156 247.926Z" fill="#E9698D"/>
<path d="M137.175 173.034L158.661 210.486L180.134 247.926H137.175H94.2156L115.688 210.486L137.175 173.034Z" fill="#E83B62"/>
<path d="M137.175 322.83L115.688 285.378L94.2156 247.926H137.175H180.134L158.661 285.378L137.175 322.83Z" fill="#C31718"/>
<path d="M223.106 173.034L244.579 210.486L266.065 247.926H223.106H180.134L201.62 210.486L223.106 173.034Z" fill="#32B6B7"/>
<path d="M223.106 322.83L201.62 285.378L180.134 247.926H223.106H266.065L244.579 285.378L223.106 322.83Z" fill="#00968E"/>
<path d="M309.024 173.034L330.51 210.486L351.996 247.926H309.024H266.065L287.551 210.486L309.024 173.034Z" fill="#E83B62"/>
<path d="M394.955 173.034L416.441 210.486L437.914 247.926H394.955H351.996L373.469 210.486L394.955 173.034Z" fill="#2953A1"/>
<path d="M480.886 173.034L502.372 210.486L523.845 247.926H480.886H437.914L459.4 210.486L480.886 173.034Z" fill="#8AA4D5"/>
<path d="M480.886 322.83L459.4 285.378L437.914 247.926H480.886H523.845L502.372 285.378L480.886 322.83Z" fill="#221B2A"/>
<path d="M180.134 247.926L158.661 210.486L137.175 173.034H180.134H223.106L201.62 210.486L180.134 247.926Z" fill="#6FC4C5"/>
<path d="M266.065 247.926L244.579 210.486L223.106 173.034H266.065H309.024L287.551 210.486L266.065 247.926Z" fill="#EEB467"/>
<path d="M351.996 247.926L330.51 210.486L309.024 173.034H351.996H394.955L373.469 210.486L351.996 247.926Z" fill="#744A98"/>
<path d="M180.134 247.926L158.661 285.378L137.175 322.83H180.134H223.106L201.62 285.378L180.134 247.926Z" fill="#6FC4C5"/>
<path d="M351.996 247.926L330.51 285.378L309.024 322.83H351.996H394.955L373.469 285.378L351.996 247.926Z" fill="#744A98"/>
<path d="M437.914 247.926L416.441 285.378L394.955 322.83H437.914H480.886L459.4 285.378L437.914 247.926Z" fill="#BBC8E8"/>
<path d="M793.486 -1.73926H705.109V85.6407H793.486V-1.73926Z" fill="#8AA4D5"/>
<path d="M756.966 -1.76465L705.109 49.9677V85.6415H740.729L793.486 33.4646V-1.73847L756.966 -1.76465Z" fill="#6FC4C5"/>
<path d="M881.678 -1.62207H793.486V85.6402H881.678V-1.62207Z" fill="#BBC8E8"/>
<path d="M881.718 49.5741L829.49 -1.62207H793.486V33.5548L846.15 85.6402H881.678L881.718 49.5741Z" fill="#00968E"/>
<path d="M969.937 -1.62207H881.744V85.6402H969.937V-1.62207Z" fill="#F28B12"/>
<path d="M881.718 49.5741L933.932 -1.62207H969.937V33.5548L917.273 85.6402H881.744L881.718 49.5741Z" fill="#4A2779"/>
<path d="M1058.14 -1.62207H969.95V85.6402H1058.14V-1.62207Z" fill="#E9C033"/>
<path d="M1058.18 49.5741L1005.97 -1.62207H969.95V33.5548L1022.61 85.6402H1058.16L1058.18 49.5741Z" fill="#744A98"/>
<path d="M264.148 85.6543H175.77V173.034H264.148V85.6543Z" fill="#EEB467"/>
<path d="M227.628 85.6279L175.77 137.36V173.034H211.391L264.148 120.857V85.6541L227.628 85.6279Z" fill="#E9698D"/>
<path d="M352.353 85.7725H264.161V173.035H352.353V85.7725Z" fill="#E9698D"/>
<path d="M352.379 136.969L300.165 85.7725H264.148V120.949L316.825 173.035H352.353L352.379 136.969Z" fill="#E83B62"/>
<path d="M440.598 85.7725H352.406V173.035H440.598V85.7725Z" fill="#4A2779"/>
<path d="M352.38 136.969L404.594 85.7725H440.611V120.949L387.947 173.035H352.406L352.38 136.969Z" fill="#744A98"/>
<path d="M528.817 85.7725H440.625V173.035H528.817V85.7725Z" fill="#744A98"/>
<path d="M528.856 136.969L476.629 85.7725H440.625V120.949L493.289 173.035H528.817L528.856 136.969Z" fill="#BB95C4"/>
<path d="M440.664 -1.73926H352.313L396.489 41.9507L440.664 -1.73926Z" fill="#6FC4C5"/>
<path d="M352.313 85.6411H440.664L396.489 41.9512L352.313 85.6411Z" fill="#8AA4D5"/>
<path d="M396.489 41.9507L440.664 85.6407V-1.73926L396.489 41.9507Z" fill="#BBC8E8"/>
<path d="M352.313 -1.73926V85.6407L396.489 41.9507L352.313 -1.73926Z" fill="#00968E"/>
<path d="M85.3832 287.719H-17.6973V391.876H85.3832V287.719Z" fill="#221B2A"/>
<path d="M-17.0098 339.791H18.0952L51.2434 287.719H17.1168L-17.0098 339.791Z" fill="#3AA3DC"/>
<path d="M17.1168 339.791H52.2218L85.37 287.719H51.2434L17.1168 339.791Z" fill="#E83B62"/>
<path d="M749.707 235.202H639.275V345.336H749.707V235.202Z" fill="#221B2A"/>
<path d="M694.491 235.921V273.439L749.707 308.864V271.346L694.491 235.921Z" fill="#E83B62"/>
<path d="M694.491 272.393V308.864L749.707 345.322V308.864L694.491 272.393Z" fill="#744A98"/>
<path d="M639.275 345.322V307.818L694.491 272.393V308.864L639.275 345.322Z" fill="#4A2779"/>
<path d="M639.275 308.864V271.346L694.491 235.921V272.392L639.275 308.864Z" fill="#E9698D"/>
<path d="M639.289 235.202H528.857V345.336H639.289V235.202Z" fill="#221B2A"/>
<path d="M584.059 235.921V273.439L639.275 308.864V271.346L584.059 235.921Z" fill="#E83B62"/>
<path d="M584.059 272.393V308.864L639.275 345.322V308.864L584.059 272.393Z" fill="#744A98"/>
<path d="M528.857 345.322V307.818L584.059 272.393V308.864L528.857 345.322Z" fill="#4A2779"/>
<path d="M528.857 308.864V271.346L584.059 235.921V272.392L528.857 308.864Z" fill="#E9698D"/>
<path d="M860.139 235.202H749.707V345.336H860.139V235.202Z" fill="#221B2A"/>
<path d="M804.923 235.921V273.439L860.139 308.864V271.346L804.923 235.921Z" fill="#E83B62"/>
<path d="M804.923 272.393V308.864L860.139 345.322V308.864L804.923 272.393Z" fill="#744A98"/>
<path d="M749.707 345.322V307.818L804.923 272.393V308.864L749.707 345.322Z" fill="#4A2779"/>
<path d="M749.707 308.864V271.346L804.923 235.921V272.392L749.707 308.864Z" fill="#E9698D"/>
<path d="M970.571 235.202H860.139V345.336H970.571V235.202Z" fill="#221B2A"/>
<path d="M915.355 235.921V273.439L970.571 308.864V272.392L915.355 235.921Z" fill="#E83B62"/>
<path d="M915.355 272.393V308.864L970.571 345.322V308.864L915.355 272.393Z" fill="#744A98"/>
<path d="M860.139 345.322V307.818L915.355 272.393V308.864L860.139 345.322Z" fill="#4A2779"/>
<path d="M860.139 308.864V271.346L915.355 235.921V272.392L860.139 308.864Z" fill="#E9698D"/>
<path d="M154.615 173.021H85.3832V216.79H154.615V173.021Z" fill="#2E2B84"/>
<path d="M223.833 173.021H154.601V216.79H223.833V173.021Z" fill="#2953A1"/>
<path d="M154.615 216.79H85.3832V260.558H154.615V216.79Z" fill="#4A2779"/>
<path d="M223.833 216.79H154.601V260.558H223.833V216.79Z" fill="#744A98"/>
<path d="M154.615 260.558H85.3832V304.326H154.615V260.558Z" fill="#00968E"/>
<path d="M223.833 260.558H154.601V304.326H223.833V260.558Z" fill="#6FC4C5"/>
<path d="M970.651 312.904V258.583H1058.18V290.504H1000.6V312.904H970.651Z" fill="#6FC4C5"/>
<path d="M1058.18 290.504V344.838H970.651V312.905H1028.23V290.504H1058.18Z" fill="#00968E"/>
<path d="M970.651 226.414V172.079H1058.18V204.013H1000.6V226.414H970.651Z" fill="#E83B62"/>
<path d="M1058.18 204.014V258.335H970.651V226.414H1028.23V204.014H1058.18Z" fill="#E9698D"/>
<path d="M970.571 139.962V85.6406H1058.1V117.575H1000.52V139.962H970.571Z" fill="#BBC8E8"/>
<path d="M1058.1 117.575V171.897H970.571V139.963H1028.15V117.575H1058.1Z" fill="#8AA4D5"/>
<path d="M33.8429 -1.74023H-17.6973V56.2559H33.8429V-1.74023Z" fill="#E83B62"/>
<path d="M85.3831 56.2568H33.8429V114.253H85.3831V56.2568Z" fill="#00968E"/>
<path d="M33.8429 114.267H-17.6973V172.263H33.8429V114.267Z" fill="#2953A1"/>
<path d="M85.3831 114.267H33.8429V172.263H85.3831V114.267Z" fill="#2E2B84"/>
<path d="M33.8429 171.713H-17.6973V229.709H33.8429V171.713Z" fill="#E83B62"/>
<path d="M85.3831 171.713H33.8429V229.709H85.3831V171.713Z" fill="#C31718"/>
<path d="M33.8429 229.709H-17.6973V287.705H33.8429V229.709Z" fill="#BBC8E8"/>
<path d="M85.3831 229.709H33.8429V287.705H85.3831V229.709Z" fill="#8AA4D5"/>
<path d="M1028.17 117.575H1000.52V139.976H1028.17V117.575Z" fill="#221B2A"/>
<path d="M1028.25 204.014H1000.6V226.414H1028.25V204.014Z" fill="#2E2B84"/>
<path d="M1028.25 290.504H1000.6V312.905H1028.25V290.504Z" fill="#C31718"/>
</g>
<rect x="529" width="923" height="297" fill="#F3F3F3"/>
<mask id="mask1" mask-type="alpha" maskUnits="userSpaceOnUse" x="532" y="0" width="908" height="295">
<rect x="532" width="908" height="295" fill="#C4C4C4"/>
</mask>
<g mask="url(#mask1)">
<path d="M353.338 23.3276L563.311 241.579" stroke="white" stroke-width="19.4314" stroke-miterlimit="10"/>
<path d="M322.273 60.5034L532.246 278.755" stroke="white" stroke-width="19.4314" stroke-miterlimit="10"/>
<path d="M410.493 -48.6221L620.465 169.629" stroke="white" stroke-width="19.4314" stroke-miterlimit="10"/>
<path d="M376.922 -14.5366L586.895 203.715" stroke="white" stroke-width="19.4314" stroke-miterlimit="10"/>
<path d="M519.219 -150.709L729.192 67.5418" stroke="white" stroke-width="19.4314" stroke-miterlimit="10"/>
<path d="M488.154 -113.533L698.127 104.718" stroke="white" stroke-width="19.4314" stroke-miterlimit="10"/>
<path d="M454.584 -79.4482L664.593 138.803" stroke="white" stroke-width="19.4314" stroke-miterlimit="10"/>
<path d="M576.374 -222.659L786.347 -4.40802" stroke="white" stroke-width="19.4314" stroke-miterlimit="10"/>
<path d="M542.803 -188.573L752.776 29.6779" stroke="white" stroke-width="19.4314" stroke-miterlimit="10"/>
<path d="M697.919 34.8896L907.891 253.141" stroke="white" stroke-width="19.4314" stroke-miterlimit="10"/>
<path d="M666.854 72.0654L876.827 290.317" stroke="white" stroke-width="19.4314" stroke-miterlimit="10"/>
<path d="M633.283 106.15L843.293 324.402" stroke="white" stroke-width="19.4314" stroke-miterlimit="10"/>
<path d="M755.073 -37.0605L965.046 181.191" stroke="white" stroke-width="19.4314" stroke-miterlimit="10"/>
<path d="M721.503 -2.97461L931.475 215.277" stroke="white" stroke-width="19.4314" stroke-miterlimit="10"/>
<path d="M526.005 202.232L735.978 420.484" stroke="white" stroke-width="19.4314" stroke-miterlimit="10"/>
<path d="M494.941 239.409L704.913 457.66" stroke="white" stroke-width="19.4314" stroke-miterlimit="10"/>
<path d="M461.37 273.495L671.38 491.746" stroke="white" stroke-width="19.4314" stroke-miterlimit="10"/>
<path d="M583.16 130.284L793.133 348.535" stroke="white" stroke-width="19.4314" stroke-miterlimit="10"/>
<path d="M549.589 164.37L759.562 382.621" stroke="white" stroke-width="19.4314" stroke-miterlimit="10"/>
<path d="M793.088 269.612L998.366 482.984" stroke="white" stroke-width="18.997" stroke-miterlimit="10"/>
<path d="M848.965 199.271L1054.24 412.643" stroke="white" stroke-width="18.997" stroke-miterlimit="10"/>
<path d="M816.144 232.594L1021.42 445.966" stroke="white" stroke-width="18.997" stroke-miterlimit="10"/>
<path d="M955.261 99.4648L1160.54 312.837" stroke="white" stroke-width="18.997" stroke-miterlimit="10"/>
<path d="M924.89 135.81L1130.17 349.181" stroke="white" stroke-width="18.997" stroke-miterlimit="10"/>
<path d="M892.07 169.134L1097.38 382.506" stroke="white" stroke-width="18.997" stroke-miterlimit="10"/>
<path d="M1011.14 29.124L1216.42 242.496" stroke="white" stroke-width="18.997" stroke-miterlimit="10"/>
<path d="M978.317 62.4478L1183.6 275.82" stroke="white" stroke-width="18.997" stroke-miterlimit="10"/>
<path d="M1129.97 280.915L1335.24 494.287" stroke="white" stroke-width="18.997" stroke-miterlimit="10"/>
<path d="M1185.84 210.574L1391.12 423.946" stroke="white" stroke-width="18.997" stroke-miterlimit="10"/>
<path d="M1153.02 243.897L1358.3 457.269" stroke="white" stroke-width="18.997" stroke-miterlimit="10"/>
<path d="M1126.02 -52.6333L1331.3 160.739" stroke="white" stroke-width="18.997" stroke-miterlimit="10"/>
<path d="M1095.65 -16.2886L1300.93 197.083" stroke="white" stroke-width="18.997" stroke-miterlimit="10"/>
<path d="M1062.83 17.0347L1268.15 230.407" stroke="white" stroke-width="18.997" stroke-miterlimit="10"/>
<path d="M1181.9 -122.974L1387.18 90.3978" stroke="white" stroke-width="18.997" stroke-miterlimit="10"/>
<path d="M1149.08 -89.6514L1354.36 123.721" stroke="white" stroke-width="18.997" stroke-miterlimit="10"/>
<path d="M1257.82 -186.436L1463.1 26.9364" stroke="white" stroke-width="18.997" stroke-miterlimit="10"/>
<path d="M1225 -153.111L1430.32 60.2606" stroke="white" stroke-width="18.997" stroke-miterlimit="10"/>
<path d="M1432.53 -4.98535L1637.81 208.387" stroke="white" stroke-width="18.997" stroke-miterlimit="10"/>
<path d="M1399.71 28.3369L1605.02 241.709" stroke="white" stroke-width="18.997" stroke-miterlimit="10"/>
<path d="M1294.83 122.273L1500.11 335.645" stroke="white" stroke-width="18.997" stroke-miterlimit="10"/>
<path d="M1264.46 158.617L1469.74 371.989" stroke="white" stroke-width="18.997" stroke-miterlimit="10"/>
<path d="M1231.64 191.94L1436.95 405.312" stroke="white" stroke-width="18.997" stroke-miterlimit="10"/>
<path d="M1350.71 51.9316L1555.98 265.304" stroke="white" stroke-width="18.997" stroke-miterlimit="10"/>
<path d="M1317.88 85.2549L1523.16 298.627" stroke="white" stroke-width="18.997" stroke-miterlimit="10"/>
<path d="M975.975 -216.87L1181.29 -3.49821" stroke="white" stroke-width="18.997" stroke-miterlimit="10"/>
<path d="M871.095 -122.934L1076.37 90.4384" stroke="white" stroke-width="18.997" stroke-miterlimit="10"/>
<path d="M840.725 -86.5898L1046 126.782" stroke="white" stroke-width="18.997" stroke-miterlimit="10"/>
<path d="M807.905 -53.2666L1013.22 160.105" stroke="white" stroke-width="18.997" stroke-miterlimit="10"/>
<path d="M926.972 -193.275L1132.25 20.0965" stroke="white" stroke-width="18.997" stroke-miterlimit="10"/>
<path d="M894.152 -159.952L1099.43 53.4198" stroke="white" stroke-width="18.997" stroke-miterlimit="10"/>
</g>
</svg>
