<svg width="41" height="41" viewBox="0 0 41 41" fill="none" xmlns="http://www.w3.org/2000/svg">
<rect width="41" height="41" fill="white"/>
<path d="M25.0825 12H18.259C15.9418 12 14.0566 13.857 14.0566 16.1395V22.8605C14.0566 25.1431 15.9418 27 18.259 27H25.0825C27.3998 27 29.285 25.143 29.285 22.8605V16.1395C29.2851 13.857 27.3998 12 25.0825 12ZM27.934 22.8605C27.934 24.4092 26.6548 25.6691 25.0825 25.6691H18.259C16.6869 25.6692 15.4078 24.4092 15.4078 22.8605V16.1395C15.4078 14.5909 16.6869 13.3309 18.259 13.3309H25.0825C26.6547 13.3309 27.9339 14.5909 27.9339 16.1395V22.8605H27.934Z" fill="black"/>
<path d="M21.6711 15.6348C19.5073 15.6348 17.7471 17.3685 17.7471 19.4995C17.7471 21.6305 19.5073 23.3642 21.6711 23.3642C23.8348 23.3642 25.5951 21.6305 25.5951 19.4995C25.5951 17.3685 23.8348 15.6348 21.6711 15.6348ZM21.6711 22.0333C20.2525 22.0333 19.0982 20.8967 19.0982 19.4995C19.0982 18.1022 20.2524 16.9654 21.6711 16.9654C23.0898 16.9654 24.2439 18.1022 24.2439 19.4995C24.2439 20.8967 23.0897 22.0333 21.6711 22.0333Z" fill="black"/>
<path d="M25.7595 14.5059C25.4991 14.5059 25.2434 14.6097 25.0595 14.7916C24.8748 14.9726 24.7686 15.2246 24.7686 15.4819C24.7686 15.7385 24.8749 15.9904 25.0595 16.1723C25.2433 16.3533 25.4991 16.458 25.7595 16.458C26.0207 16.458 26.2756 16.3533 26.4603 16.1723C26.645 15.9904 26.7504 15.7384 26.7504 15.4819C26.7504 15.2246 26.645 14.9726 26.4603 14.7916C26.2765 14.6097 26.0207 14.5059 25.7595 14.5059Z" fill="black"/>
</svg>
