<svg width="33" height="33" viewBox="0 0 33 33" fill="none" xmlns="http://www.w3.org/2000/svg">
<path d="M21.0117 9.86133C21.0117 10.3953 20.5789 10.8281 20.0449 10.8281C19.5109 10.8281 19.0781 10.3953 19.0781 9.86133C19.0781 9.32732 19.5109 8.89453 20.0449 8.89453C20.5789 8.89453 21.0117 9.32732 21.0117 9.86133Z" fill="#744A98"/>
<path d="M13.9219 9.86133C13.9219 10.3953 13.4891 10.8281 12.9551 10.8281C12.4211 10.8281 11.9883 10.3953 11.9883 9.86133C11.9883 9.32732 12.4211 8.89453 12.9551 8.89453C13.4891 8.89453 13.9219 9.32732 13.9219 9.86133Z" fill="#744A98"/>
<path d="M28.4883 14.3086H24.3852C25.1098 13.01 25.5234 11.5155 25.5234 9.92578C25.5234 9.16669 25.4295 8.41793 25.244 7.69057C26.4019 6.92569 27.1348 5.61044 27.1348 4.18945C27.1348 1.87946 25.2553 0 22.9453 0C21.6855 0 20.5193 0.557922 19.7332 1.49904C18.705 1.10275 17.6211 0.902344 16.5 0.902344C15.3789 0.902344 14.295 1.10275 13.2668 1.49904C12.4807 0.557922 11.3145 0 10.0547 0C7.7447 0 5.86523 1.87946 5.86523 4.18945C5.86523 5.61044 6.59814 6.92569 7.75603 7.69057C7.57047 8.41793 7.47656 9.16669 7.47656 9.92578C7.47656 11.5155 7.89022 13.01 8.61481 14.3086H4.51172C2.20173 14.3086 0.322266 16.1881 0.322266 18.498C0.322266 20.808 2.20173 22.6875 4.51172 22.6875H6.50977V24.8842C5.7104 25.7468 5.2207 26.9001 5.2207 28.166C5.2207 30.8315 7.3892 33 10.0547 33H22.9453C25.6108 33 27.7793 30.8315 27.7793 28.166C27.7793 26.9001 27.2896 25.7468 26.4902 24.8842V22.6875H28.4883C30.7983 22.6875 32.6777 20.808 32.6777 18.498C32.6777 16.1881 30.7983 14.3086 28.4883 14.3086ZM7.79883 4.18945C7.79883 2.94546 8.81069 1.93359 10.0547 1.93359C10.9004 1.93359 11.6683 2.40113 12.0585 3.15367C12.3012 3.62196 12.875 3.80903 13.3473 3.57413C14.332 3.08443 15.3927 2.83594 16.5 2.83594C17.6073 2.83594 18.668 3.08443 19.6527 3.57413C20.125 3.80928 20.6988 3.62196 20.9415 3.15367C21.3317 2.40113 22.0996 1.93359 22.9453 1.93359C24.1893 1.93359 25.2012 2.94546 25.2012 4.18945C25.2012 5.12176 24.6151 5.96997 23.7427 6.29979C23.2495 6.4866 22.9967 7.0342 23.1749 7.53069C23.4504 8.29784 23.5898 9.10375 23.5898 9.92578C23.5898 13.5072 20.9203 16.4763 17.4668 16.9494V14.7771L18.2214 14.4C18.699 14.1611 18.8926 13.5805 18.6536 13.1029C18.415 12.6253 17.8344 12.4316 17.3568 12.6706L16.5 13.0988L15.6432 12.6703C15.1659 12.4316 14.585 12.6253 14.3464 13.1026C14.1074 13.5802 14.301 14.1611 14.7786 14.3997L15.5332 14.7771V16.9494C12.0797 16.4763 9.41016 13.5072 9.41016 9.92578C9.41016 9.10375 9.54964 8.29784 9.82507 7.53069C10.0033 7.0342 9.75055 6.4866 9.25708 6.29979C8.38495 5.96997 7.79883 5.12176 7.79883 4.18945ZM7.1543 28.166C7.1543 26.5668 8.45544 25.2656 10.0547 25.2656C11.6539 25.2656 12.9551 26.5668 12.9551 28.166C12.9551 29.7653 11.6539 31.0664 10.0547 31.0664C8.45544 31.0664 7.1543 29.7653 7.1543 28.166ZM22.9453 31.0664C21.3461 31.0664 20.0449 29.7653 20.0449 28.166C20.0449 26.5668 21.3461 25.2656 22.9453 25.2656C24.5446 25.2656 25.8457 26.5668 25.8457 28.166C25.8457 29.7653 24.5446 31.0664 22.9453 31.0664ZM28.4883 20.7539H25.5234C24.9894 20.7539 24.5566 21.1867 24.5566 21.7207V23.6092C24.0523 23.4302 23.5103 23.332 22.9453 23.332C20.2798 23.332 18.1113 25.5005 18.1113 28.166C18.1113 29.2534 18.4724 30.258 19.0806 31.0664H13.9194C14.5276 30.258 14.8887 29.2534 14.8887 28.166C14.8887 25.5005 12.7202 23.332 10.0547 23.332C9.48972 23.332 8.94765 23.4302 8.44336 23.6092V21.7207C8.44336 21.1867 8.01057 20.7539 7.47656 20.7539H4.51172C3.26772 20.7539 2.25586 19.742 2.25586 18.498C2.25586 17.2541 3.26772 16.2422 4.51172 16.2422H10.0627C11.7013 17.9117 13.9815 18.9492 16.5 18.9492C19.0185 18.9492 21.2987 17.9117 22.9373 16.2422H28.4883C29.7323 16.2422 30.7441 17.2541 30.7441 18.498C30.7441 19.742 29.7323 20.7539 28.4883 20.7539Z" fill="#744A98"/>
</svg>
