<svg width="60" height="60" viewBox="0 0 60 60" fill="none" xmlns="http://www.w3.org/2000/svg">
<path fill-rule="evenodd" clip-rule="evenodd" d="M15.6775 19.9596C16.2922 20.1628 16.9551 19.8296 17.1579 19.2148C18.9976 13.6507 24.1736 9.9126 30.038 9.9126C37.5165 9.9126 43.601 15.9967 43.601 23.4757C43.601 29.2559 41.0119 32.7092 38.9319 35.4842C37.4185 37.5025 36.1116 39.2461 36.1116 41.3605C36.1116 41.4997 36.1097 41.6375 36.1065 41.7743H31.2098V39.0822C31.2098 38.4349 30.6852 37.9103 30.038 37.9103C29.3907 37.9103 28.8661 38.4349 28.8661 39.0822V41.7743H23.9689C23.9657 41.6375 23.9639 41.4997 23.9639 41.3605C23.9639 39.2456 22.657 37.5025 21.1436 35.4837C19.6115 33.4398 17.8752 31.1231 17.0141 27.8313C16.8503 27.2051 16.2094 26.8302 15.5836 26.994C14.9579 27.1575 14.583 27.7983 14.7468 28.4241C15.7242 32.1608 17.6893 34.7829 19.2686 36.8895C20.5824 38.6423 21.6202 40.0266 21.6202 41.3605C21.6202 41.9217 21.644 42.4692 21.6902 42.9915V52.9039C21.6902 52.9355 21.6925 52.9662 21.6948 52.9969C21.6957 53.0042 21.6952 53.012 21.6961 53.0193C21.7003 53.0628 21.7071 53.1049 21.7158 53.147V53.1479C22.1228 55.0568 23.1647 56.7926 24.6506 58.0355C26.1648 59.3026 28.0783 60.0002 30.038 60.0002C31.9977 60.0002 33.9106 59.3026 35.4254 58.0355C36.9108 56.7926 37.9532 55.0568 38.3597 53.1479C38.3597 53.1475 38.3601 53.147 38.3601 53.1465C38.3688 53.1049 38.3752 53.0628 38.3798 53.0193C38.3803 53.012 38.3803 53.0042 38.3807 52.9969C38.383 52.9657 38.3853 52.9351 38.3853 52.9035V42.9915C38.4315 42.4692 38.4558 41.9217 38.4558 41.3605C38.4558 40.0266 39.4935 38.6423 40.8073 36.8895C42.9753 33.9974 45.9448 30.0368 45.9448 23.4757C45.9448 14.7045 38.8087 7.56885 30.038 7.56885C23.1605 7.56885 17.0906 11.9533 14.9327 18.4792C14.7294 19.0935 15.0632 19.7563 15.6775 19.9596ZM30.038 57.6564C27.6553 57.6564 25.5066 56.2154 24.4885 54.0753H35.5874C34.5689 56.2154 32.4202 57.6564 30.038 57.6564ZM36.042 51.7316H24.0339V49.0967H36.042V51.7316ZM36.042 46.753H24.0339V44.1181H36.042V46.753Z" fill="black"/>
<path fill-rule="evenodd" clip-rule="evenodd" d="M30.038 5.46616C30.6852 5.46616 31.2098 4.94156 31.2098 4.29428V1.17188C31.2098 0.524597 30.6852 0 30.038 0C29.3907 0 28.8661 0.524597 28.8661 1.17188V4.29428C28.8661 4.94156 29.3907 5.46616 30.038 5.46616Z" fill="#744A98"/>
<path fill-rule="evenodd" clip-rule="evenodd" d="M7.73438 24.6475H10.8568C11.5041 24.6475 12.0287 24.1229 12.0287 23.4756C12.0287 22.8283 11.5041 22.3037 10.8568 22.3037H7.73438C7.0871 22.3037 6.5625 22.8283 6.5625 23.4756C6.5625 24.1229 7.0871 24.6475 7.73438 24.6475Z" fill="#744A98"/>
<path fill-rule="evenodd" clip-rule="evenodd" d="M35.4034 25.8433C35.4034 25.196 34.8788 24.6714 34.2316 24.6714H25.8444C25.1971 24.6714 24.6725 25.196 24.6725 25.8433C24.6725 26.4905 25.1971 27.0151 25.8444 27.0151H28.8661V29.7072C28.8661 30.3545 29.3907 30.8791 30.038 30.8791C30.6853 30.8791 31.2099 30.3545 31.2099 29.7072V27.0151H34.2316C34.8788 27.0151 35.4034 26.4905 35.4034 25.8433Z" fill="black"/>
<path fill-rule="evenodd" clip-rule="evenodd" d="M15.6464 10.7409C15.8753 10.9698 16.1751 11.0843 16.4749 11.0843C16.7748 11.0843 17.0746 10.9698 17.3035 10.7409C17.7613 10.2832 17.7613 9.54114 17.3035 9.08383L15.0957 6.87604C14.6379 6.41827 13.8959 6.41827 13.4381 6.87604C12.9808 7.33334 12.9808 8.07538 13.4381 8.53314L15.6464 10.7409Z" fill="#744A98"/>
<path fill-rule="evenodd" clip-rule="evenodd" d="M13.4587 41.2268C13.7586 41.2268 14.0584 41.1124 14.2873 40.8835L16.4951 38.6757C16.9528 38.218 16.9528 37.4764 16.4951 37.0186C16.0373 36.5609 15.2953 36.5609 14.838 37.0186L12.6297 39.2264C12.1724 39.6842 12.1724 40.4262 12.6297 40.8835C12.8586 41.1124 13.1584 41.2268 13.4587 41.2268Z" fill="#744A98"/>
<path fill-rule="evenodd" clip-rule="evenodd" d="M43.6011 11.0841C43.9009 11.0841 44.2007 10.9696 44.4296 10.7407L46.6374 8.53294C47.0952 8.07518 47.0952 7.33314 46.6374 6.87538C46.1801 6.41761 45.4381 6.41807 44.9803 6.87538L42.7725 9.08317C42.3148 9.54094 42.3148 10.283 42.7721 10.7407C43.0009 10.9696 43.3012 11.0841 43.6011 11.0841Z" fill="#744A98"/>
<path fill-rule="evenodd" clip-rule="evenodd" d="M43.5809 37.0186C43.1232 37.4759 43.1232 38.218 43.5809 38.6757L45.7887 40.8835C46.0176 41.1124 46.3174 41.2268 46.6173 41.2268C46.9171 41.2268 47.2169 41.1124 47.4458 40.8835C47.9036 40.4262 47.9036 39.6842 47.4458 39.2264L45.238 37.0186C44.7803 36.5609 44.0382 36.5609 43.5809 37.0186Z" fill="#744A98"/>
<path fill-rule="evenodd" clip-rule="evenodd" d="M49.2192 24.6475H52.3416C52.9889 24.6475 53.5135 24.1229 53.5135 23.4756C53.5135 22.8283 52.9889 22.3037 52.3416 22.3037H49.2192C48.572 22.3037 48.0474 22.8283 48.0474 23.4756C48.0474 24.1229 48.572 24.6475 49.2192 24.6475Z" fill="#744A98"/>
<path fill-rule="evenodd" clip-rule="evenodd" d="M30.038 33.2227C29.3925 33.2227 28.8661 33.7491 28.8661 34.3945C28.8661 35.04 29.3925 35.5664 30.038 35.5664C30.6834 35.5664 31.2098 35.04 31.2098 34.3945C31.2098 33.7491 30.6834 33.2227 30.038 33.2227Z" fill="black"/>
<path fill-rule="evenodd" clip-rule="evenodd" d="M16.4749 23.4756C16.4749 22.8301 15.9485 22.3037 15.303 22.3037C14.6571 22.3037 14.1312 22.8301 14.1312 23.4756C14.1312 24.121 14.6571 24.6475 15.303 24.6475C15.9485 24.6475 16.4749 24.121 16.4749 23.4756Z" fill="black"/>
</svg>
