<svg width="38" height="38" viewBox="0 0 38 38" fill="none" xmlns="http://www.w3.org/2000/svg">
<path d="M12.936 15.4934C12.936 14.9756 12.5124 14.552 11.9946 14.552H4.44798C3.93022 14.552 3.50661 14.9756 3.50661 15.4934C3.50661 16.0111 3.93022 16.4347 4.44798 16.4347H11.9946C12.5124 16.4347 12.936 16.0111 12.936 15.4934Z" fill="white"/>
<path d="M33.552 14.552H26.0054C25.4876 14.552 25.064 14.9756 25.064 15.4934C25.064 16.0111 25.4876 16.4347 26.0054 16.4347H33.552C34.0698 16.4347 34.4934 16.0111 34.4934 15.4934C34.4934 14.9756 34.0776 14.552 33.552 14.552Z" fill="white"/>
<path d="M19 9.4294C19.5177 9.4294 19.9414 9.00578 19.9414 8.48803V0.941371C19.9414 0.423617 19.5177 0 19 0C18.4822 0 18.0586 0.423617 18.0586 0.941371V8.48803C18.0586 9.00578 18.4822 9.4294 19 9.4294Z" fill="white"/>
<path d="M23.95 11.4848C24.1932 11.4848 24.4286 11.3907 24.6168 11.2102L29.9591 5.86795C30.3278 5.49925 30.3278 4.90304 29.9591 4.53434C29.5904 4.16564 28.9942 4.16564 28.6255 4.53434L23.2832 9.87662C22.9145 10.2453 22.9145 10.8415 23.2832 11.2102C23.4715 11.3907 23.7147 11.4848 23.95 11.4848Z" fill="white"/>
<path d="M13.3832 11.2102C13.5636 11.3907 13.8068 11.4848 14.05 11.4848C14.2931 11.4848 14.5285 11.3907 14.7168 11.2102C15.0855 10.8415 15.0855 10.2453 14.7168 9.87662L9.37448 4.53434C9.00578 4.16564 8.40957 4.16564 8.04087 4.53434C7.67217 4.90304 7.67217 5.49925 8.04087 5.86795L13.3832 11.2102Z" fill="white"/>
<path d="M30.3121 21.4319C29.5983 20.82 28.6961 20.4827 27.7783 20.4827H26.9232H23.8481H22.3889V16.6779C22.3889 14.858 21.8476 13.5322 20.7729 12.7399C19.0784 11.5004 16.7799 12.1986 16.6779 12.23C16.2857 12.3555 16.019 12.7163 16.019 13.1243V17.7135C16.019 19.1098 15.3522 20.2944 14.0264 21.2436C13.0223 21.9653 11.9946 22.2948 11.8613 22.334L11.7671 22.3576C11.4141 21.9575 10.8964 21.7064 10.3159 21.7064H6.73865C5.67176 21.7064 4.80099 22.5772 4.80099 23.6441V35.3798C4.80099 36.4467 5.67176 37.3175 6.73865 37.3175H10.3315C10.8022 37.3175 11.2415 37.1449 11.571 36.8625C12.2927 37.5685 13.2733 38 14.3324 38H17.9017H18.2704H25.5739C26.7035 38 27.6998 37.7254 28.4608 37.2155C29.4335 36.5566 30.0376 35.5132 30.2101 34.1796L31.6614 25.1581C31.8889 23.7618 31.3712 22.334 30.3121 21.4319ZM10.3865 35.3798C10.3865 35.4112 10.3629 35.4348 10.3315 35.4348H6.73865C6.70727 35.4348 6.68374 35.4112 6.68374 35.3798V23.6441C6.68374 23.6127 6.70727 23.5892 6.73865 23.5892H10.3315C10.3629 23.5892 10.3865 23.6127 10.3865 23.6441V35.3798ZM29.8022 24.8679L28.3509 33.905C28.3509 33.9129 28.3509 33.9286 28.3431 33.9443C28.2803 34.4855 28.0764 36.1251 25.5739 36.1251H18.2704H17.9017H14.3324C13.3282 36.1251 12.4496 35.372 12.2927 34.3757C12.2849 34.3365 12.277 34.2973 12.2692 34.2659V24.1775L12.3241 24.1618C12.3398 24.1618 12.3476 24.154 12.3633 24.154C12.4183 24.1383 13.7519 23.7618 15.0776 22.8125C16.9211 21.5025 17.9017 19.7374 17.9017 17.7135V13.9009C18.4195 13.846 19.1334 13.8695 19.659 14.2539C20.2238 14.6697 20.5062 15.4855 20.5062 16.6701V21.4162C20.5062 21.9339 20.9298 22.3576 21.4476 22.3576H23.8481H26.9232H27.7783C28.249 22.3576 28.7118 22.538 29.0883 22.8518C29.6532 23.3381 29.9199 24.1069 29.8022 24.8679Z" fill="white"/>
</svg>
