<svg width="60" height="60" viewBox="0 0 60 60" fill="none" xmlns="http://www.w3.org/2000/svg">
<g clip-path="url(#clip0)">
<path d="M15.1686 30.5907C13.0373 31.2182 11.3183 31.9468 10.5702 32.5402C10.3464 32.7177 10.0793 32.8038 9.81424 32.8038C9.45525 32.8038 9.09978 32.6459 8.85932 32.3428C8.44133 31.8157 8.52969 31.0497 9.05661 30.6317C10.4191 29.5512 13.0399 28.6782 14.4807 28.2541C15.1259 28.0637 15.8029 28.4331 15.9929 29.0784C16.1828 29.7238 15.8138 30.4007 15.1686 30.5907ZM31.6607 38.6103C32.2858 41.8206 31.6784 44.751 29.9042 47.0848C28.3406 49.1413 25.9869 50.5647 23.2766 51.0924C22.5261 51.2386 21.7747 51.3108 21.034 51.3108C19.0998 51.3108 17.2356 50.8185 15.6297 49.8644C13.1094 48.367 11.4469 45.8785 10.8218 42.6681L10.8096 42.6052C10.702 42.0463 10.9958 41.4875 11.5172 41.2594C12.4061 40.8701 13.4171 40.49 14.522 40.1296C14.8708 40.0158 15.2524 40.0655 15.5608 40.2647C19.7579 42.9783 23.4942 42.2505 26.3662 38.1606C26.5772 37.8602 26.9122 37.6711 27.2784 37.6455C28.4372 37.565 29.5172 37.5381 30.4881 37.5653C31.0576 37.5812 31.54 37.99 31.6492 38.5493L31.6607 38.6103ZM29.408 39.9927C28.9616 39.9979 28.4943 40.0139 28.0088 40.0406C25.8526 42.8814 23.2107 44.3264 20.3371 44.3267C18.5422 44.3268 16.6575 43.7634 14.7431 42.6239C14.2831 42.7814 13.8439 42.942 13.4284 43.1045C14.8129 47.927 19.1627 49.4119 22.811 48.7018C26.4596 47.9914 29.9334 44.9834 29.408 39.9927ZM23.0992 29.0464C25.3105 28.8282 27.1776 28.8588 28.0931 29.128C28.2079 29.1618 28.3234 29.1778 28.4372 29.1778C28.9636 29.1778 29.449 28.8338 29.605 28.3034C29.7947 27.658 29.4256 26.9812 28.7802 26.7912C27.196 26.3253 24.6862 26.4422 22.8598 26.6226C22.1904 26.6885 21.7014 27.2848 21.7674 27.9541C21.8336 28.6235 22.4309 29.1125 23.0992 29.0464ZM37.4325 13.5084C37.4715 13.5121 37.5101 13.514 37.5482 13.514C38.1692 13.514 38.6998 13.041 38.7593 12.4103C38.8224 11.7407 38.3308 11.1466 37.6611 11.0836C35.449 10.8751 33.6222 10.4883 32.7747 10.049C32.1773 9.73923 31.4424 9.97251 31.1331 10.5698C30.8235 11.1668 31.0566 11.9018 31.6538 12.2114C33.1975 13.0115 35.937 13.3676 37.4325 13.5084ZM45.8533 13.514C45.8916 13.514 45.9302 13.5121 45.969 13.5084C47.7965 13.3363 50.2825 12.9714 51.7482 12.2112C52.3453 11.9016 52.5782 11.1664 52.2686 10.5694C51.9589 9.97251 51.224 9.73963 50.6268 10.049C49.7799 10.4882 47.9533 10.8749 45.7405 11.0836C45.0709 11.1466 44.5792 11.7405 44.6423 12.4103C44.7017 13.041 45.2322 13.514 45.8533 13.514ZM39.2283 37.2733C40.8859 45.7862 34.8552 54.6461 24.8886 58.3399C24.7645 58.3859 24.6338 58.4112 24.5016 58.4153C24.2324 58.4232 23.9626 58.4273 23.6958 58.4273C13.4282 58.4273 4.92058 52.5659 3.30505 44.2685L0.0401731 27.5022C-0.284447 25.8353 1.34867 24.3013 5.17984 22.6741C8.29168 21.3525 12.5162 20.1357 17.0755 19.2481C21.6348 18.3603 26.007 17.9007 29.3875 17.9603C33.5491 18.0308 35.6387 18.8401 35.9633 20.5068L39.2283 37.2733ZM36.8376 37.7387L33.5949 21.0869C33.29 20.8539 31.9543 20.3757 28.5915 20.3918C25.4883 20.4125 21.5638 20.8554 17.5411 21.6387C13.5185 22.422 9.71451 23.4841 6.83027 24.6293C3.70599 25.8699 2.6485 26.8203 2.45324 27.151L5.69579 43.803C7.11403 51.0874 14.8933 56.1873 24.2293 55.9857C32.9605 52.6697 38.2559 45.0233 36.8376 37.7387ZM54.0322 2.66253C50.7253 1.96011 46.346 1.57324 41.7011 1.57324C37.056 1.57324 32.6766 1.95997 29.3698 2.66253C25.2983 3.52733 23.402 4.72107 23.402 6.41928V13.89C23.402 14.5627 23.9472 15.1078 24.6199 15.1078C25.2925 15.1078 25.8377 14.5627 25.8377 13.89V6.53592C26.0924 6.24864 27.3119 5.51781 30.6159 4.89725C33.6658 4.32447 37.6026 4.00905 41.7011 4.00905C45.7995 4.00905 49.7362 4.32447 52.7862 4.89725C56.0902 5.51781 57.3098 6.24864 57.5644 6.53592V23.5002C57.5644 30.3389 52.0035 36.3917 43.7267 38.5619C43.0761 38.7325 42.687 39.3982 42.8576 40.0487C43.001 40.5958 43.4945 40.958 44.0348 40.958C44.137 40.958 44.2409 40.945 44.3446 40.918C48.8129 39.7463 52.6721 37.506 55.5048 34.4393C58.4457 31.2555 60.0002 27.4729 60.0002 23.5002V6.41928C60 4.72107 58.1037 3.52733 54.0322 2.66253ZM47.3978 30.9927C47.4475 30.9927 47.4974 30.9898 47.5472 30.9835C48.7005 30.8409 49.7656 30.6611 50.7128 30.4489C51.2689 30.3243 51.6643 29.8305 51.6643 29.2606V29.1993C51.6643 26.0031 50.5516 23.2843 48.4466 21.3368C46.2905 19.3419 43.2595 18.3367 40.1332 18.581C39.4625 18.6332 38.9613 19.2191 39.0136 19.8896C39.0658 20.5602 39.6509 21.0632 40.3222 21.0092C42.7757 20.818 45.1332 21.5893 46.7927 23.1247C48.1853 24.4131 49.0043 26.1799 49.1888 28.2729C48.75 28.3532 48.2885 28.4268 47.807 28.4933C45.8678 26.7593 43.8182 25.7954 41.7073 25.627C41.0375 25.5742 40.4499 26.0738 40.3964 26.7441C40.3429 27.4146 40.843 28.0015 41.5135 28.0551C43.2072 28.1902 44.9029 29.0641 46.5536 30.6526C46.7817 30.8722 47.085 30.9927 47.3978 30.9927Z" fill="black"/>
<path d="M15.1687 30.5904C13.0373 31.2179 11.3183 31.9465 10.5703 32.5399C10.3465 32.7174 10.0793 32.8035 9.81426 32.8035C9.45527 32.8035 9.0998 32.6456 8.85934 32.3425C8.44135 31.8154 8.52971 31.0494 9.05663 30.6314C10.4191 29.5509 13.0399 28.6779 14.4807 28.2538C15.1259 28.0634 15.8029 28.4328 15.9929 29.0781C16.1829 29.7235 15.8139 30.4004 15.1687 30.5904ZM31.6607 38.61C32.2859 41.8203 31.6784 44.7507 29.9042 47.0845C28.3406 49.141 25.987 50.5644 23.2766 51.0921C22.5261 51.2383 21.7747 51.3105 21.034 51.3105C19.0998 51.3105 17.2356 50.8182 15.6297 49.8641C13.1094 48.3667 11.447 45.8782 10.8218 42.6678L10.8096 42.6049C10.7021 42.046 10.9958 41.4872 11.5172 41.259C12.4061 40.8697 13.4172 40.4896 14.522 40.1293C14.8708 40.0155 15.2524 40.0652 15.5608 40.2644C19.7579 42.978 23.4942 42.2502 26.3662 38.1603C26.5772 37.8599 26.9122 37.6708 27.2784 37.6452C28.4372 37.5647 29.5172 37.5378 30.4881 37.565C31.0576 37.5809 31.54 37.9897 31.6492 38.549L31.6607 38.61ZM29.408 39.9924C28.9616 39.9976 28.4943 40.0136 28.0088 40.0403C25.8526 42.8811 23.2107 44.3261 20.3372 44.3264C18.5422 44.3265 16.6575 43.7631 14.7431 42.6236C14.2832 42.7811 13.8439 42.9417 13.4284 43.1042C14.8129 47.9267 19.1628 49.4116 22.811 48.7015C26.4596 47.9911 29.9334 44.9831 29.408 39.9924ZM23.0992 29.0461C25.3105 28.8279 27.1776 28.8585 28.0931 29.1277C28.2079 29.1615 28.3234 29.1775 28.4372 29.1775C28.9636 29.1775 29.449 28.8335 29.605 28.3031C29.7947 27.6577 29.4256 26.9809 28.7803 26.7909C27.196 26.325 24.6862 26.4419 22.8598 26.6223C22.1904 26.6882 21.7014 27.2845 21.7674 27.9538C21.8336 28.6232 22.4309 29.1122 23.0992 29.0461Z" fill="#E83B62"/>
</g>
<defs>
<clipPath id="clip0">
<rect width="60" height="60" fill="white"/>
</clipPath>
</defs>
</svg>
