<svg width="43" height="43" viewBox="0 0 43 43" fill="none" xmlns="http://www.w3.org/2000/svg">
<g clip-path="url(#clip0)">
<path d="M42.7365 4.10861C42.4869 3.87165 42.1188 3.80962 41.8053 3.95145C40.4755 4.5532 39.061 4.8583 37.6011 4.8583C34.3387 4.8583 32.5274 3.49493 30.7758 2.17639C29.3674 1.11615 28.0371 0.114746 26.1929 0.114746C24.2177 0.114746 22.4807 1.15384 21.5 2.71422C20.5192 1.15384 18.7823 0.114746 16.8071 0.114746C14.963 0.114746 13.6327 1.11615 12.2242 2.17639C10.4726 3.49493 8.66139 4.8583 5.39898 4.8583C3.93898 4.8583 2.52448 4.5532 1.19476 3.95145C0.881384 3.80952 0.513213 3.87165 0.263566 4.10861C0.0140144 4.34547 -0.0671957 4.70988 0.0581912 5.03031C0.978197 7.38211 2.56452 9.38999 4.64553 10.8368C5.65699 11.54 6.75211 12.0858 7.9023 12.4653L12.9567 42.1812C13.0269 42.5938 13.3847 42.8854 13.7897 42.8854C13.8368 42.8854 13.8845 42.8815 13.9325 42.8733C14.3931 42.795 14.703 42.3581 14.6246 41.8974L9.69475 12.9136C10.4117 13.038 11.1433 13.1011 11.8828 13.1011C14.003 13.1011 16.5238 12.4188 18.4618 11.3206C19.8178 10.552 20.844 9.60975 21.5 8.55251C22.1561 9.60984 23.1822 10.552 24.5384 11.3206C26.4762 12.4188 28.9971 13.1011 31.1172 13.1011C33.7213 13.1011 36.224 12.3182 38.3546 10.8368C40.4356 9.38999 42.0219 7.38221 42.942 5.03031C43.0672 4.70988 42.986 4.34547 42.7365 4.10861ZM17.6275 9.84868C15.9548 10.7967 13.6998 11.4092 11.8828 11.4092C11.1859 11.4092 10.5047 11.3261 9.83612 11.2215C9.22225 11.1256 8.36607 10.8431 8.21417 10.7899C5.85983 9.96598 3.84894 8.35814 2.52166 6.19864C3.45746 6.4324 4.41948 6.55027 5.39908 6.55027C9.22704 6.55027 11.4531 4.87456 13.2418 3.5282C14.5194 2.56646 15.5286 1.80681 16.8072 1.80681C18.9285 1.80681 20.6542 3.53253 20.6542 5.65376C20.654 7.70319 19.0082 9.06619 17.6275 9.84868ZM31.1171 11.4092C29.3001 11.4092 27.0452 10.7967 25.3724 9.84868C23.9918 9.06619 22.3459 7.70319 22.3459 5.65367C22.3459 3.53243 24.0716 1.80672 26.1928 1.80672C27.4714 1.80672 28.4805 2.56637 29.7583 3.52811C31.547 4.87456 33.773 6.55018 37.601 6.55018C38.5805 6.55018 39.5426 6.4324 40.4784 6.19855C38.5007 9.41631 35.0051 11.4092 31.1171 11.4092Z" fill="white"/>
</g>
<defs>
<clipPath id="clip0">
<rect width="43" height="43" fill="white"/>
</clipPath>
</defs>
</svg>
