<svg width="141" height="94" viewBox="0 0 141 94" fill="none" xmlns="http://www.w3.org/2000/svg">
<path d="M37.7253 78.5593C37.7253 85.1412 32.3949 90.4709 25.8131 90.4709C19.2312 90.4709 13.9016 85.1412 13.9016 78.5593L15.8605 59.2953C15.8605 52.7135 19.2312 47.3838 25.8131 47.3838C32.3949 47.3838 35.1245 52.7135 35.1245 59.2953L37.7253 78.5593Z" fill="#E9698D"/>
<path d="M50.7279 58.9101C50.7279 58.7175 50.7279 58.5569 50.7279 58.3642C50.7279 44.3657 39.3946 33 25.3639 33C11.3654 33 0 44.3657 0 58.3642C0 58.5569 0 58.7496 0 58.9101H50.7279Z" fill="#E5E5E5"/>
<path d="M119.672 74.5162C119.672 85.292 110.964 94 100.188 94C89.4121 94 80.7045 85.2522 80.7045 74.5162L83.8857 42.9843C83.8857 32.2086 89.4121 23.5005 100.188 23.5005C110.964 23.5005 115.417 32.2484 115.417 42.9843L119.672 74.5162Z" fill="#F28B12"/>
<path d="M140.905 42.3872C140.905 42.0691 140.945 41.7907 140.945 41.4726C140.945 18.5692 122.376 0 99.4724 0C76.569 0 58 18.5692 58 41.4726C58 41.7907 58 42.0691 58.0398 42.3872H140.905Z" fill="#E9698D"/>
</svg>
