<svg width="554" height="314" viewBox="0 0 554 314" fill="none" xmlns="http://www.w3.org/2000/svg">
<mask id="mask0" mask-type="alpha" maskUnits="userSpaceOnUse" x="0" y="0" width="780" height="314">
<rect width="780" height="314" fill="#C4C4C4"/>
</mask>
<g mask="url(#mask0)">
<path d="M-153.476 24.8296L26.8967 257.138" stroke="#F9F9F9" stroke-width="19.4314" stroke-miterlimit="10"/>
<path d="M-180.162 64.3999L0.211195 296.708" stroke="#F9F9F9" stroke-width="19.4314" stroke-miterlimit="10"/>
<path d="M-104.379 -51.7539L75.9944 180.554" stroke="#F9F9F9" stroke-width="19.4314" stroke-miterlimit="10"/>
<path d="M-133.217 -15.4727L47.1561 216.835" stroke="#F9F9F9" stroke-width="19.4314" stroke-miterlimit="10"/>
<path d="M-10.9791 -160.417L169.394 71.8917" stroke="#F9F9F9" stroke-width="19.4314" stroke-miterlimit="10"/>
<path d="M-37.6646 -120.846L142.708 111.462" stroke="#F9F9F9" stroke-width="19.4314" stroke-miterlimit="10"/>
<path d="M-66.5028 -84.5654L113.902 147.743" stroke="#F9F9F9" stroke-width="19.4314" stroke-miterlimit="10"/>
<path d="M38.1186 -237L218.492 -4.69199" stroke="#F9F9F9" stroke-width="19.4314" stroke-miterlimit="10"/>
<path d="M9.28027 -200.719L189.653 31.5893" stroke="#F9F9F9" stroke-width="19.4314" stroke-miterlimit="10"/>
<path d="M142.529 37.1362L322.902 269.444" stroke="#F9F9F9" stroke-width="19.4314" stroke-miterlimit="10"/>
<path d="M115.844 76.7065L296.217 309.015" stroke="#F9F9F9" stroke-width="19.4314" stroke-miterlimit="10"/>
<path d="M87.0056 112.987L267.41 345.295" stroke="#F9F9F9" stroke-width="19.4314" stroke-miterlimit="10"/>
<path d="M191.627 -39.4473L372 192.861" stroke="#F9F9F9" stroke-width="19.4314" stroke-miterlimit="10"/>
<path d="M162.789 -3.16602L343.162 229.142" stroke="#F9F9F9" stroke-width="19.4314" stroke-miterlimit="10"/>
<path d="M-5.14966 215.258L175.223 447.566" stroke="#F9F9F9" stroke-width="19.4314" stroke-miterlimit="10"/>
<path d="M-31.8352 254.829L148.538 487.137" stroke="#F9F9F9" stroke-width="19.4314" stroke-miterlimit="10"/>
<path d="M-60.6733 291.109L119.731 523.417" stroke="#F9F9F9" stroke-width="19.4314" stroke-miterlimit="10"/>
<path d="M43.948 138.675L224.321 370.983" stroke="#F9F9F9" stroke-width="19.4314" stroke-miterlimit="10"/>
<path d="M15.1097 174.956L195.483 407.264" stroke="#F9F9F9" stroke-width="19.4314" stroke-miterlimit="10"/>
<path d="M224.282 286.977L400.623 514.091" stroke="#F9F9F9" stroke-width="18.997" stroke-miterlimit="10"/>
<path d="M272.282 212.105L448.623 439.219" stroke="#F9F9F9" stroke-width="18.997" stroke-miterlimit="10"/>
<path d="M244.089 247.575L420.429 474.689" stroke="#F9F9F9" stroke-width="18.997" stroke-miterlimit="10"/>
<path d="M363.594 105.872L539.935 332.986" stroke="#F9F9F9" stroke-width="18.997" stroke-miterlimit="10"/>
<path d="M337.505 144.557L513.846 371.671" stroke="#F9F9F9" stroke-width="18.997" stroke-miterlimit="10"/>
<path d="M309.312 180.027L485.683 407.141" stroke="#F9F9F9" stroke-width="18.997" stroke-miterlimit="10"/>
<path d="M411.594 31L587.935 258.115" stroke="#F9F9F9" stroke-width="18.997" stroke-miterlimit="10"/>
<path d="M383.4 66.4697L559.741 293.584" stroke="#F9F9F9" stroke-width="18.997" stroke-miterlimit="10"/>
<path d="M513.67 299.008L690.011 526.122" stroke="#F9F9F9" stroke-width="18.997" stroke-miterlimit="10"/>
<path d="M533.477 259.606L709.818 486.72" stroke="#F9F9F9" stroke-width="18.997" stroke-miterlimit="10"/>
<path d="M510.282 -56.0234L686.623 171.091" stroke="#F9F9F9" stroke-width="18.997" stroke-miterlimit="10"/>
<path d="M484.193 -17.3384L660.534 209.776" stroke="#F9F9F9" stroke-width="18.997" stroke-miterlimit="10"/>
<path d="M456 18.1318L632.371 245.246" stroke="#F9F9F9" stroke-width="18.997" stroke-miterlimit="10"/>
<path d="M558.282 -130.895L734.623 96.2195" stroke="#F9F9F9" stroke-width="18.997" stroke-miterlimit="10"/>
<path d="M530.089 -95.4253L706.429 131.689" stroke="#F9F9F9" stroke-width="18.997" stroke-miterlimit="10"/>
<path d="M381.388 -230.837L557.76 -3.7229" stroke="#F9F9F9" stroke-width="18.997" stroke-miterlimit="10"/>
<path d="M291.293 -130.852L467.634 96.2626" stroke="#F9F9F9" stroke-width="18.997" stroke-miterlimit="10"/>
<path d="M265.204 -92.167L441.545 134.948" stroke="#F9F9F9" stroke-width="18.997" stroke-miterlimit="10"/>
<path d="M237.011 -56.6973L413.382 170.417" stroke="#F9F9F9" stroke-width="18.997" stroke-miterlimit="10"/>
<path d="M339.293 -205.724L515.634 21.3909" stroke="#F9F9F9" stroke-width="18.997" stroke-miterlimit="10"/>
<path d="M311.099 -170.254L487.44 56.8606" stroke="#F9F9F9" stroke-width="18.997" stroke-miterlimit="10"/>
</g>
</svg>
