<svg width="547" height="617" viewBox="0 0 547 617" fill="none" xmlns="http://www.w3.org/2000/svg">
<mask id="mask0" mask-type="alpha" maskUnits="userSpaceOnUse" x="0" y="602" width="547" height="15">
<rect y="602" width="547" height="15" fill="#C4C4C4"/>
</mask>
<g mask="url(#mask0)">
<path d="M-40.2827 597.035L7.71134 553.124L56.9098 602.138L-40.2827 696.715V597.035Z" fill="#EEB467"/>
<path d="M-40.2827 696.716L56.9098 602.138L152.916 696.716L56.3166 794.636L-40.2827 696.716Z" fill="#221B2A"/>
<path d="M-242.307 148.467C-241.858 148.467 -242.307 305.107 -242.307 305.107L152.916 696.716V500.911L-40.2827 305.107H152.898V148.467H-242.307Z" fill="#C31718"/>
<path d="M152.916 500.911L352.1 308.058V502.102L152.916 696.715V500.911Z" fill="#E9698D"/>
<path d="M448.088 502.387V602.138H554.179L595.073 562.102L550.08 502.387H448.088Z" fill="#2E2B84"/>
<path d="M448.089 602.138L344.749 703.844H451.09L554.179 602.138H448.089Z" fill="#BBC8E8"/>
<path d="M448.088 407.169V602.138L252.499 794.635L250.989 600.893L448.088 407.169Z" fill="#BB95C4"/>
<path d="M250.989 600.894L252.499 794.636H151.856L148.386 692.271L250.989 600.894Z" fill="#221B2A"/>
<path d="M352.1 799.969L744.465 415.845H838.045L443.289 799.969H352.1Z" fill="#E9C033"/>
<path d="M838.063 415.845L883.648 462.351L744.465 606.067L785.341 652.982L692.732 749.178L640.982 703.845L543.394 702.565L838.063 415.845Z" fill="#EEB467"/>
<path d="M1796.72 295.205H-343.328V1648.48H1796.72V295.205Z" fill="white"/>
<path d="M66.4007 540.307H-3.66699V619.151H66.4007V540.307Z" fill="#E9698D"/>
<path d="M259.078 580.253H136.469V699.045H259.078V580.253Z" fill="#8AA4D5"/>
<path d="M379.495 580.271H259.348V699.063H379.495V580.271Z" fill="#EEB467"/>
<path d="M329.847 580.235L259.348 650.564V699.062H307.773L379.495 628.129V580.271L329.847 580.235Z" fill="#F28B12"/>
<path d="M499.408 580.432H379.513V699.063H499.408V580.432Z" fill="#E83B62"/>
<path d="M499.444 650.032L428.459 580.432H379.495V628.254L451.108 699.063H499.408L499.444 650.032Z" fill="#E9698D"/>
<path d="M619.375 580.432H499.48V699.063H619.375V580.432Z" fill="#4A2779"/>
<path d="M499.444 650.032L570.428 580.432H619.393V628.254L547.797 699.063H499.48L499.444 650.032Z" fill="#744A98"/>
<path d="M136.468 540.307H66.4006V619.151H136.468V540.307Z" fill="#744A98"/>
</g>
<mask id="mask1" mask-type="alpha" maskUnits="userSpaceOnUse" x="0" y="0" width="541" height="15">
<rect width="541" height="15" fill="#C4C4C4"/>
</mask>
<g mask="url(#mask1)">
<path d="M403.745 -172.893V9.24005L590.706 9.02672L403.745 -172.893Z" fill="#6FC4C5"/>
<path d="M597.159 -358.991L791.436 -166.636L606.956 9.23987L590.706 9.95096L403.745 -172.893L597.159 -358.991Z" fill="#32B6B7"/>
<path d="M459.918 55.4271L403.745 9.24056L520.746 8.68945L459.918 55.4271Z" fill="#E83B62"/>
<path d="M744.377 -90.8311L638.934 8.47556L520.746 8.68894L459.918 55.4267L512.603 108.404L616.932 108.884L812.036 -90.8311H744.377Z" fill="#4A2779"/>
<path d="M-64.2063 4.06641L20.9787 101.844H121.784L28.1868 4.06641H-64.2063Z" fill="#F28B12"/>
<path d="M-456.571 197.969L-64.2063 -186.155H29.3731L-365.383 197.969H-456.571Z" fill="#E9C033"/>
<path d="M29.3911 -186.155L74.9766 -139.649L-64.2063 4.06693L-23.3304 50.9825L-115.939 147.178L-167.69 101.845L-265.278 100.565L29.3911 -186.155Z" fill="#EEB467"/>
<path d="M-64.2063 4.06677L378.562 -453.533H403.745V-379.969L28.1868 4.06677H-64.2063Z" fill="#E9C033"/>
<path d="M28.187 4.0668L403.745 -379.969V-173.64L121.766 101.845L28.187 4.0668Z" fill="#EEB467"/>
<path d="M122.683 400.902L116.967 301.205L403.745 9.24023V114.894L122.683 400.902Z" fill="#E9C033"/>
<path d="M216.568 9.24023L168.88 55.8357L215.975 106.591H313.761L403.745 9.24023H216.568Z" fill="#BB95C4"/>
<path d="M216.568 9.24026L403.745 -173.64V9.24026H216.568Z" fill="#BBC8E8"/>
<path d="M403.745 9.24023L459.918 55.4268V192.938L403.745 147.178V9.24023Z" fill="#C31718"/>
<path d="M988.05 -306.795H-1152V1046.48H988.05V-306.795Z" fill="white"/>
<path d="M532.142 -22.2622H-69.6887V181.56H532.142V-22.2622Z" fill="#BBC8E8"/>
<path d="M456.517 174L401.758 76.483L347 -21H456.517H566L511.242 76.483L456.517 174Z" fill="#E9698D"/>
<path d="M-10.1904 -22.2622L19.5586 28.7066L49.3077 79.6577H-10.1904H-69.6887L-39.9396 28.7066L-10.1904 -22.2622Z" fill="#E83B62"/>
<path d="M108.806 -22.2622L138.555 28.7066L168.286 79.6577H108.806H49.3076L79.0567 28.7066L108.806 -22.2622Z" fill="#32B6B7"/>
<path d="M227.784 -22.2622L257.534 28.7066L287.283 79.6577H227.784H168.286L198.035 28.7066L227.784 -22.2622Z" fill="#BB95C4"/>
<path d="M346.781 -22.2622L376.53 28.7066L406.279 79.6577H346.781H287.283L317.032 28.7066L346.781 -22.2622Z" fill="#2953A1"/>
<path d="M465.76 -22.2622L495.509 28.7066L525.258 79.6577H465.76H406.279L436.01 28.7066L465.76 -22.2622Z" fill="#E83B62"/>
<path d="M49.3077 79.6577L19.5587 28.6889L-10.1904 -22.2622H49.3077H108.806L79.0568 28.6889L49.3077 79.6577Z" fill="#6FC4C5"/>
<path d="M168.286 79.6577L138.555 28.6889L108.806 -22.2622H168.286H227.785L198.035 28.6889L168.286 79.6577Z" fill="#744A98"/>
<path d="M287.283 79.6577L257.534 28.6889L227.785 -22.2622H287.283H346.781L317.032 28.6889L287.283 79.6577Z" fill="#744A98"/>
<path d="M531.19 52.1019V-21.7471H650.187V21.6663H571.904V52.1019H531.19Z" fill="#BBC8E8"/>
</g>
<mask id="mask2" mask-type="alpha" maskUnits="userSpaceOnUse" x="531" y="0" width="15" height="617">
<rect x="531" y="617" width="617" height="15" transform="rotate(-90 531 617)" fill="#C4C4C4"/>
</mask>
<g mask="url(#mask2)">
<path d="M535.066 463.259L632.844 355.996L632.844 229.063L535.066 346.919L535.066 463.259Z" fill="#F28B12"/>
<path d="M728.969 957.319L344.845 463.259L344.845 345.426L728.969 842.496L728.969 957.319Z" fill="#E9C033"/>
<path d="M344.845 345.403L391.351 288.002L535.067 463.259L581.982 411.789L678.178 528.4L632.845 593.564L631.565 716.446L344.845 345.403Z" fill="#EEB467"/>
<path d="M535.067 463.259L77.4668 -94.2668L77.4668 -125.977L151.031 -125.977L535.067 346.919L535.067 463.259Z" fill="#E9C033"/>
<path d="M535.067 346.919L151.031 -125.977L357.36 -125.977L632.845 229.085L535.067 346.919Z" fill="#EEB467"/>
<path d="M931.902 227.931L832.205 235.129L540.24 -125.977L645.894 -125.977L931.902 227.931Z" fill="#E9C033"/>
<path d="M540.24 109.713L586.836 169.761L637.591 110.46L637.591 -12.6705L540.24 -125.977L540.24 109.713Z" fill="#BB95C4"/>
<path d="M540.24 109.713L357.36 -125.977L540.24 -125.977L540.24 109.713Z" fill="#BBC8E8"/>
<path d="M224.204 -861.725L224.205 1832.99L1577.48 1832.99L1577.48 -861.725L224.204 -861.725Z" fill="white"/>
<path d="M508.738 -287.653L508.738 470.163L712.56 470.163L712.56 -287.653L508.738 -287.653Z" fill="#BBC8E8"/>
<path d="M610.658 470.163L559.689 507.622L508.738 545.082L508.738 470.163L508.738 395.243L559.689 432.703L610.658 470.163Z" fill="#E9698D"/>
<path d="M508.738 395.243L559.707 357.784L610.658 320.324L610.658 395.243L610.658 470.163L559.707 432.703L508.738 395.243Z" fill="#E83B62"/>
<path d="M508.738 245.405L559.707 207.945L610.658 170.508L610.658 245.405L610.658 320.324L559.707 282.865L508.738 245.405Z" fill="#32B6B7"/>
<path d="M508.738 95.589L559.707 58.1292L610.658 20.6696L610.658 95.589L610.658 170.508L559.707 133.049L508.738 95.589Z" fill="#E9C033"/>
<path d="M508.738 -54.2492L559.706 -91.7088L610.658 -129.168L610.658 -54.2492L610.658 20.6699L559.706 -16.7896L508.738 -54.2492Z" fill="#2953A1"/>
<path d="M610.658 320.324L559.689 357.784L508.738 395.243L508.738 320.324L508.738 245.405L559.689 282.865L610.658 320.324Z" fill="#6FC4C5"/>
<path d="M610.658 170.509L559.689 207.946L508.738 245.405L508.738 170.509L508.738 95.5893L559.689 133.049L610.658 170.509Z" fill="#EEB467"/>
<path d="M610.658 20.6698L559.689 58.1294L508.738 95.5891L508.738 20.6698L508.738 -54.2494L559.689 -16.7898L610.658 20.6698Z" fill="#E83B62"/>
<path d="M509.432 469.756L509.432 620.726L628.063 620.726L628.063 469.756L509.432 469.756Z" fill="#744A98"/>
<path d="M579.032 469.688L509.432 559.093L509.432 620.726L557.254 620.726L628.063 530.574L628.063 469.756L579.032 469.688Z" fill="#BB95C4"/>
</g>
<mask id="mask3" mask-type="alpha" maskUnits="userSpaceOnUse" x="0" y="0" width="15" height="617">
<rect y="617" width="617" height="15" transform="rotate(-90 0 617)" fill="#C4C4C4"/>
</mask>
<g mask="url(#mask3)">
<path d="M-99.6133 554.395L0.137817 554.395L0.137812 420.808L-39.8978 369.315L-99.6133 425.969L-99.6133 554.395Z" fill="#2E2B84"/>
<path d="M0.13769 554.395L101.844 684.519L101.844 550.615L0.137684 420.808L0.13769 554.395Z" fill="#BBC8E8"/>
<path d="M-194.831 554.395L0.137776 554.395L192.635 800.678L-1.10667 802.579L-194.831 554.395Z" fill="#BB95C4"/>
<path d="M4.06641 181.202L101.844 73.9386L101.844 -52.9942L4.0664 64.8622L4.06641 181.202Z" fill="#F28B12"/>
<path d="M197.969 675.262L-186.155 181.202L-186.155 63.3685L197.969 560.438L197.969 675.262Z" fill="#E9C033"/>
<path d="M-186.155 63.3457L-139.649 5.94522L4.06691 181.202L50.9824 129.732L147.178 246.343L101.845 311.507L100.565 434.388L-186.155 63.3457Z" fill="#EEB467"/>
<path d="M4.06677 181.202L-453.533 -376.324L-453.533 -408.034L-379.969 -408.034L4.06677 64.8622L4.06677 181.202Z" fill="#E9C033"/>
<path d="M4.0668 64.862L-379.969 -408.035L-173.64 -408.035L101.845 -52.9717L4.0668 64.862Z" fill="#EEB467"/>
<path d="M-306.796 -1143.78L-306.795 1550.93L1046.48 1550.93L1046.48 -1143.78L-306.796 -1143.78Z" fill="white"/>
<path d="M-22.2622 -569.711L-22.2622 188.105L181.56 188.105L181.56 -569.711L-22.2622 -569.711Z" fill="#BBC8E8"/>
<path d="M79.6577 188.106L28.6889 225.565L-22.2622 263.025L-22.2622 188.106L-22.2622 113.186L28.6889 150.646L79.6577 188.106Z" fill="#E9698D"/>
<path d="M-22.2622 113.186L28.7066 75.7266L79.6577 38.2671L79.6577 113.186L79.6577 188.105L28.7066 150.646L-22.2622 113.186Z" fill="#E83B62"/>
<path d="M-22.2622 -36.6521L28.7066 -74.1118L79.6577 -111.549L79.6577 -36.6521L79.6577 38.2671L28.7066 0.807504L-22.2622 -36.6521Z" fill="#32B6B7"/>
<path d="M79.6577 38.2672L28.6889 75.7267L-22.2622 113.186L-22.2622 38.2672L-22.2622 -36.652L28.6889 0.8076L79.6577 38.2672Z" fill="#6FC4C5"/>
<path d="M-21.5684 489.774L-21.5684 640.745L97.0627 640.745L97.0627 489.774L-21.5684 489.774Z" fill="#E83B62"/>
<path d="M48.0316 489.729L-21.5684 579.112L-21.5684 640.767L26.2538 640.767L97.0627 550.593L97.0627 489.775L48.0316 489.729Z" fill="#E9698D"/>
<path d="M-21.5684 338.714L-21.5684 489.684L97.0627 489.684L97.0627 338.714L-21.5684 338.714Z" fill="#4A2779"/>
<path d="M48.0316 489.729L-21.5684 400.347L-21.5684 338.691L26.2538 338.691L97.0627 428.843L97.0627 489.684L48.0316 489.729Z" fill="#744A98"/>
<path d="M-21.5684 187.699L-21.5684 338.668L97.0627 338.668L97.0627 187.699L-21.5684 187.699Z" fill="#744A98"/>
<path d="M48.0316 187.63L-21.5684 277.036L-21.5684 338.668L26.2538 338.668L97.0627 248.516L97.0627 187.698L48.0316 187.63Z" fill="#BB95C4"/>
</g>
</svg>
