<svg width="36" height="36" viewBox="0 0 36 36" fill="none" xmlns="http://www.w3.org/2000/svg">
<path d="M33.2021 14.1828C33.854 13.5474 34.0841 12.6148 33.8029 11.7491C33.5216 10.8833 32.7872 10.2642 31.8864 10.1334L24.0093 8.98875C23.8547 8.96632 23.721 8.86922 23.6518 8.72902L20.1291 1.59124C19.7263 0.774916 18.9105 0.267822 18.0002 0.267822C17.0898 0.267822 16.274 0.774916 15.8712 1.59124L12.3485 8.72909C12.2792 8.86922 12.1457 8.96632 11.991 8.98882L4.114 10.1334C3.21315 10.2642 2.47888 10.8833 2.19749 11.7491C1.9161 12.6148 2.1463 13.5474 2.79824 14.1828L8.49812 19.7388C8.60999 19.848 8.6611 20.0051 8.63467 20.1592L7.2891 28.0043C7.13525 28.9016 7.49708 29.7913 8.23353 30.3263C8.96999 30.8616 9.92821 30.9307 10.7338 30.5072L17.7792 26.8032C17.9176 26.7304 18.0828 26.7304 18.2212 26.8032L25.2667 30.5072C25.6171 30.6914 25.9963 30.7825 26.3737 30.7824C26.8637 30.7824 27.3507 30.6288 27.7668 30.3263C28.5032 29.7911 28.8651 28.9014 28.7112 28.0043L27.3656 20.1591C27.3393 20.005 27.3903 19.8479 27.5022 19.7388L33.2021 14.1828ZM25.4938 20.4803L26.8394 28.3256C26.8844 28.5882 26.7223 28.7379 26.6506 28.79C26.5787 28.842 26.3862 28.9501 26.1505 28.826L19.105 25.122C18.7592 24.9403 18.3798 24.8493 18.0003 24.8493C17.6208 24.8493 17.2413 24.9403 16.8955 25.122L9.85016 28.8259C9.61433 28.9498 9.42189 28.8419 9.3501 28.7898C9.27831 28.7377 9.11617 28.588 9.16124 28.3255L10.5068 20.4803C10.6389 19.71 10.3838 18.9245 9.824 18.3789L4.12412 12.8229C3.93336 12.6368 3.97653 12.4205 4.00403 12.3361C4.03138 12.2517 4.1237 12.0512 4.3873 12.013L12.2642 10.8683C13.0376 10.756 13.7059 10.2706 14.0518 9.5696L17.5746 2.43176C17.6925 2.19291 17.9116 2.1671 18.0004 2.1671C18.089 2.1671 18.3081 2.19284 18.4261 2.43176V2.43183L21.9488 9.56967C22.2947 10.2706 22.9629 10.7561 23.7363 10.8684L31.6134 12.013C31.877 12.0513 31.9692 12.2517 31.9966 12.3362C32.024 12.4206 32.0673 12.6371 31.8765 12.823L26.1766 18.379C25.6169 18.9245 25.3617 19.71 25.4938 20.4803Z" fill="white"/>
<path d="M29.0941 1.59083C28.6697 1.28258 28.0759 1.37666 27.7676 1.80093L26.7596 3.18833C26.4513 3.6126 26.5453 4.20653 26.9696 4.51478C27.1383 4.63719 27.3336 4.69618 27.5271 4.69618C27.8208 4.69618 28.1103 4.56041 28.2961 4.30475L29.3042 2.91735C29.6124 2.49301 29.5184 1.89908 29.0941 1.59083Z" fill="white"/>
<path d="M9.23627 3.18286L8.2282 1.79545C7.92002 1.37133 7.32616 1.27725 6.90176 1.58536C6.47749 1.89361 6.38341 2.48754 6.69166 2.91181L7.69973 4.29921C7.88557 4.55508 8.17511 4.69078 8.46888 4.69078C8.66245 4.69078 8.85778 4.63179 9.02625 4.50931C9.45051 4.20113 9.54459 3.6072 9.23627 3.18286Z" fill="white"/>
<path d="M3.48411 21.5741C3.32204 21.0754 2.78633 20.8024 2.28746 20.9645L0.656423 21.4945C0.157556 21.6565 -0.115327 22.1924 0.0467436 22.6911C0.177103 23.0925 0.549408 23.3476 0.949697 23.3476C1.04694 23.3476 1.14587 23.3325 1.24339 23.3008L2.87443 22.7708C3.37323 22.6087 3.64618 22.073 3.48411 21.5741Z" fill="white"/>
<path d="M18.0003 32.1177C17.4758 32.1177 17.0507 32.5429 17.0507 33.0673V34.7824C17.0507 35.3068 17.4758 35.732 18.0003 35.732C18.5248 35.732 18.9499 35.3068 18.9499 34.7824V33.0673C18.9499 32.5428 18.5248 32.1177 18.0003 32.1177Z" fill="white"/>
<path d="M35.3436 21.4959L33.7125 20.9659C33.2139 20.8039 32.6779 21.0768 32.5159 21.5756C32.3538 22.0745 32.6267 22.6102 33.1255 22.7723L34.7566 23.3023C34.8541 23.3339 34.953 23.349 35.0502 23.349C35.4506 23.349 35.8229 23.0938 35.9532 22.6925C36.1153 22.1937 35.8423 21.658 35.3436 21.4959Z" fill="white"/>
</svg>
