<svg width="52" height="52" viewBox="0 0 52 52" fill="none" xmlns="http://www.w3.org/2000/svg">
<path d="M47.9586 20.4866C48.9002 19.5688 49.2326 18.2218 48.8264 16.9712C48.42 15.7207 47.3593 14.8265 46.0581 14.6374L34.68 12.9841C34.4567 12.9517 34.2636 12.8115 34.1637 12.6089L29.0753 2.29882C28.4935 1.11968 27.3151 0.387207 26.0002 0.387207C24.6853 0.387207 23.5069 1.11968 22.9251 2.29882L17.8367 12.609C17.7367 12.8115 17.5437 12.9517 17.3203 12.9842L5.94242 14.6374C4.64121 14.8265 3.58059 15.7207 3.17413 16.9712C2.76768 18.2218 3.1002 19.5688 4.04189 20.4866L12.275 28.512C12.4366 28.6696 12.5105 28.8966 12.4723 29.1191L10.5287 40.4511C10.3065 41.7471 10.8291 43.0322 11.8929 43.8051C12.9566 44.5782 14.3407 44.678 15.5044 44.0663L25.6811 38.7161C25.881 38.611 26.1195 38.611 26.3195 38.7161L36.4963 44.0663C37.0025 44.3324 37.5502 44.4639 38.0953 44.4638C38.8032 44.4638 39.5066 44.242 40.1075 43.805C41.1713 43.032 41.694 41.7468 41.4717 40.451L39.5281 29.119C39.49 28.8965 39.5638 28.6695 39.7254 28.5119L47.9586 20.4866ZM36.8244 29.583L38.768 40.9151C38.833 41.2943 38.5989 41.5106 38.4952 41.5858C38.3914 41.661 38.1134 41.8171 37.7729 41.6379L27.5962 36.2877C27.0966 36.0252 26.5485 35.8938 26.0004 35.8938C25.4523 35.8938 24.9041 36.0252 24.4047 36.2876L14.228 41.6377C13.8874 41.8168 13.6094 41.6609 13.5057 41.5856C13.402 41.5104 13.1678 41.2941 13.2329 40.9149L15.1765 29.583C15.3673 28.4704 14.9988 27.3357 14.1902 26.5477L5.95705 18.5223C5.68151 18.2536 5.74387 17.9411 5.78358 17.8192C5.82309 17.6972 5.95644 17.4077 6.3372 17.3524L17.7149 15.6991C18.832 15.5368 19.7974 14.8356 20.2971 13.8231L25.3854 3.51289C25.5558 3.16789 25.8722 3.13061 26.0005 3.13061C26.1286 3.13061 26.445 3.16779 26.6155 3.51289V3.513L31.7039 13.8232C32.2034 14.8357 33.1687 15.5369 34.2858 15.6992L45.6637 17.3525C46.0445 17.4078 46.1777 17.6973 46.2173 17.8193C46.2569 17.9413 46.3194 18.2539 46.0438 18.5224L37.8106 26.5478C37.0022 27.3357 36.6336 28.4704 36.8244 29.583Z" fill="black"/>
<path d="M42.0248 2.29817C41.4118 1.85292 40.5541 1.98881 40.1089 2.60164L38.6527 4.60567C38.2075 5.2185 38.3433 6.07639 38.9562 6.52164C39.1999 6.69846 39.4819 6.78368 39.7614 6.78368C40.1856 6.78368 40.6039 6.58756 40.8722 6.21828L42.3283 4.21425C42.7736 3.60132 42.6378 2.74342 42.0248 2.29817Z" fill="#32B6B7"/>
<path d="M13.3413 4.59722L11.8852 2.59319C11.44 1.98056 10.5822 1.84467 9.96917 2.28972C9.35635 2.73497 9.22046 3.59287 9.66571 4.2057L11.1218 6.20973C11.3902 6.57932 11.8085 6.77533 12.2328 6.77533C12.5124 6.77533 12.7945 6.69012 13.0379 6.5132C13.6507 6.06805 13.7866 5.21015 13.3413 4.59722Z" fill="#32B6B7"/>
<path d="M5.03262 31.1625C4.79852 30.4421 4.02471 30.0478 3.30413 30.2819L0.948182 31.0474C0.227596 31.2815 -0.166568 32.0555 0.0675338 32.7759C0.255831 33.3557 0.793604 33.7242 1.3718 33.7242C1.51226 33.7242 1.65516 33.7024 1.79603 33.6566L4.15197 32.891C4.87246 32.6569 5.26672 31.8831 5.03262 31.1625Z" fill="#32B6B7"/>
<path d="M26.0005 46.3921C25.2429 46.3921 24.6288 47.0062 24.6288 47.7638V50.2411C24.6288 50.9987 25.2429 51.6128 26.0005 51.6128C26.7581 51.6128 27.3722 50.9987 27.3722 50.2411V47.7638C27.3722 47.0061 26.7582 46.3921 26.0005 46.3921Z" fill="#32B6B7"/>
<path d="M51.0518 31.0493L48.6959 30.2837C47.9756 30.0498 47.2015 30.4439 46.9674 31.1645C46.7333 31.8851 47.1274 32.6589 47.848 32.893L50.204 33.6586C50.3448 33.7043 50.4876 33.726 50.6281 33.726C51.2064 33.726 51.7442 33.3574 51.9325 32.7777C52.1666 32.0572 51.7723 31.2834 51.0518 31.0493Z" fill="#32B6B7"/>
</svg>
